%TF.GenerationSoftware,KiCad,Pcbnew,7.0.9*%
%TF.CreationDate,2024-03-04T14:23:29-07:00*%
%TF.ProjectId,picoAWG,7069636f-4157-4472-9e6b-696361645f70,rev?*%
%TF.SameCoordinates,Original*%
%TF.FileFunction,Copper,L4,Bot*%
%TF.FilePolarity,Positive*%
%FSLAX46Y46*%
G04 Gerber Fmt 4.6, Leading zero omitted, Abs format (unit mm)*
G04 Created by KiCad (PCBNEW 7.0.9) date 2024-03-04 14:23:29*
%MOMM*%
%LPD*%
G01*
G04 APERTURE LIST*
%TA.AperFunction,ComponentPad*%
%ADD10R,1.600000X1.600000*%
%TD*%
%TA.AperFunction,ComponentPad*%
%ADD11C,1.600000*%
%TD*%
%TA.AperFunction,ComponentPad*%
%ADD12C,5.600000*%
%TD*%
%TA.AperFunction,ComponentPad*%
%ADD13C,1.270000*%
%TD*%
%TA.AperFunction,ComponentPad*%
%ADD14C,2.350000*%
%TD*%
%TA.AperFunction,ComponentPad*%
%ADD15R,1.700000X1.700000*%
%TD*%
%TA.AperFunction,ComponentPad*%
%ADD16O,1.700000X1.700000*%
%TD*%
%TA.AperFunction,ComponentPad*%
%ADD17R,2.000000X4.600000*%
%TD*%
%TA.AperFunction,ComponentPad*%
%ADD18O,2.000000X4.200000*%
%TD*%
%TA.AperFunction,ComponentPad*%
%ADD19O,4.200000X2.000000*%
%TD*%
%TA.AperFunction,ComponentPad*%
%ADD20R,1.850000X1.850000*%
%TD*%
%TA.AperFunction,ComponentPad*%
%ADD21C,1.850000*%
%TD*%
%TA.AperFunction,ComponentPad*%
%ADD22R,0.850000X0.850000*%
%TD*%
%TA.AperFunction,ComponentPad*%
%ADD23O,0.850000X0.850000*%
%TD*%
%TA.AperFunction,ComponentPad*%
%ADD24O,1.600000X0.900000*%
%TD*%
%TA.AperFunction,ViaPad*%
%ADD25C,0.450000*%
%TD*%
%TA.AperFunction,Conductor*%
%ADD26C,0.250000*%
%TD*%
%TA.AperFunction,Conductor*%
%ADD27C,0.200000*%
%TD*%
G04 APERTURE END LIST*
D10*
%TO.P,C15,1*%
%TO.N,+5V*%
X85560000Y-78987621D03*
D11*
%TO.P,C15,2*%
%TO.N,GND*%
X85560000Y-81487621D03*
%TD*%
D12*
%TO.P,REF\u002A\u002A,1*%
%TO.N,N/C*%
X246868690Y-149536270D03*
%TD*%
D13*
%TO.P,RV2,1,1*%
%TO.N,unconnected-(RV2-Pad1)*%
X195378690Y-33836270D03*
%TO.P,RV2,2,2*%
%TO.N,/Analog/CARRIER_SIG*%
X197918690Y-33836270D03*
%TO.P,RV2,3,3*%
%TO.N,/VCCS/A+*%
X200458690Y-33836270D03*
%TD*%
D14*
%TO.P,SW3,1*%
%TO.N,Net-(D1-K)*%
X65310000Y-42550000D03*
%TO.P,SW3,2*%
%TO.N,Net-(D2-K)*%
X70010000Y-42550000D03*
%TO.P,SW3,3*%
%TO.N,GND*%
X74710000Y-42550000D03*
%TD*%
D12*
%TO.P,REF\u002A\u002A,1*%
%TO.N,N/C*%
X62118690Y-149536270D03*
%TD*%
D13*
%TO.P,RV3,1,1*%
%TO.N,unconnected-(RV3-Pad1)*%
X206898690Y-55886270D03*
%TO.P,RV3,2,2*%
%TO.N,/VCCS/C+*%
X204358690Y-55886270D03*
%TO.P,RV3,3,3*%
%TO.N,/VCCS_Iout*%
X201818690Y-55886270D03*
%TD*%
D15*
%TO.P,J5,1,Pin_1*%
%TO.N,Net-(J5-Pin_1)*%
X88985000Y-142190000D03*
D16*
%TO.P,J5,2,Pin_2*%
%TO.N,Net-(J5-Pin_2)*%
X91525000Y-142190000D03*
%TD*%
D13*
%TO.P,RV1,1,1*%
%TO.N,unconnected-(RV1-Pad1)*%
X226065000Y-34226401D03*
%TO.P,RV1,2,2*%
%TO.N,Net-(U21-1_RG)*%
X223525000Y-34226401D03*
%TO.P,RV1,3,3*%
%TO.N,Net-(U21-2_RG)*%
X220985000Y-34226401D03*
%TD*%
D10*
%TO.P,SW4,1,C*%
%TO.N,/Analog/CARRIER_SIG*%
X186900000Y-39942500D03*
D11*
%TO.P,SW4,2,B*%
%TO.N,/DDS 4/OUT4*%
X186900000Y-42442500D03*
%TO.P,SW4,3,A*%
%TO.N,/HDR_15*%
X186900000Y-44942500D03*
%TO.P,SW4,4*%
%TO.N,N/C*%
X183700000Y-39942500D03*
%TO.P,SW4,5*%
X183700000Y-42442500D03*
%TO.P,SW4,6*%
X183700000Y-44942500D03*
%TD*%
D17*
%TO.P,J4,1*%
%TO.N,Net-(F1-Pad1)*%
X68350000Y-54800000D03*
D18*
%TO.P,J4,2*%
%TO.N,GND*%
X62050000Y-54800000D03*
D19*
%TO.P,J4,3*%
X65450000Y-59600000D03*
%TD*%
D12*
%TO.P,REF\u002A\u002A,1*%
%TO.N,N/C*%
X247118690Y-34536270D03*
%TD*%
D20*
%TO.P,PS1,1,-Vin*%
%TO.N,GND*%
X88218690Y-63316270D03*
D21*
%TO.P,PS1,2,NC*%
%TO.N,unconnected-(PS1-NC-Pad2)*%
X72978690Y-63316270D03*
%TO.P,PS1,3,+Vin*%
%TO.N,Net-(PS1-+Vin)*%
X88218690Y-70936270D03*
%TO.P,PS1,4,-Vout*%
%TO.N,VSS*%
X80598690Y-70936270D03*
%TO.P,PS1,5,+Vout*%
%TO.N,VCC*%
X75518690Y-70936270D03*
%TO.P,PS1,6,0V*%
%TO.N,GND*%
X72978690Y-70936270D03*
%TD*%
D12*
%TO.P,REF\u002A\u002A,1*%
%TO.N,N/C*%
X62118690Y-34536270D03*
%TD*%
D22*
%TO.P,J1,1,Pin_1*%
%TO.N,Net-(J1-Pin_1)*%
X86100000Y-87800000D03*
D23*
%TO.P,J1,2,Pin_2*%
%TO.N,Net-(J1-Pin_2)*%
X86100000Y-88800000D03*
%TD*%
D24*
%TO.P,J2,6,Shield*%
%TO.N,GND*%
X56120000Y-78470000D03*
X56120000Y-85070000D03*
%TD*%
D15*
%TO.P,J3,1,Pin_1*%
%TO.N,GND*%
X201118690Y-72966270D03*
D16*
%TO.P,J3,2,Pin_2*%
%TO.N,/HDR_15*%
X198578690Y-72966270D03*
%TO.P,J3,3,Pin_3*%
%TO.N,GND*%
X201118690Y-75506270D03*
%TO.P,J3,4,Pin_4*%
%TO.N,/HDR_14*%
X198578690Y-75506270D03*
%TO.P,J3,5,Pin_5*%
%TO.N,GND*%
X201118690Y-78046270D03*
%TO.P,J3,6,Pin_6*%
%TO.N,/HDR_13*%
X198578690Y-78046270D03*
%TO.P,J3,7,Pin_7*%
%TO.N,GND*%
X201118690Y-80586270D03*
%TO.P,J3,8,Pin_8*%
%TO.N,/HDR_12*%
X198578690Y-80586270D03*
%TO.P,J3,9,Pin_9*%
%TO.N,GND*%
X201118690Y-83126270D03*
%TO.P,J3,10,Pin_10*%
%TO.N,/HDR_11*%
X198578690Y-83126270D03*
%TO.P,J3,11,Pin_11*%
%TO.N,GND*%
X201118690Y-85666270D03*
%TO.P,J3,12,Pin_12*%
%TO.N,/HDR_10*%
X198578690Y-85666270D03*
%TO.P,J3,13,Pin_13*%
%TO.N,GND*%
X201118690Y-88206270D03*
%TO.P,J3,14,Pin_14*%
%TO.N,/HDR_9*%
X198578690Y-88206270D03*
%TO.P,J3,15,Pin_15*%
%TO.N,GND*%
X201118690Y-90746270D03*
%TO.P,J3,16,Pin_16*%
%TO.N,/HDR_8*%
X198578690Y-90746270D03*
%TO.P,J3,17,Pin_17*%
%TO.N,GND*%
X201118690Y-93286270D03*
%TO.P,J3,18,Pin_18*%
%TO.N,/HDR_7*%
X198578690Y-93286270D03*
%TO.P,J3,19,Pin_19*%
%TO.N,GND*%
X201118690Y-95826270D03*
%TO.P,J3,20,Pin_20*%
%TO.N,/HDR_6*%
X198578690Y-95826270D03*
%TO.P,J3,21,Pin_21*%
%TO.N,GND*%
X201118690Y-98366270D03*
%TO.P,J3,22,Pin_22*%
%TO.N,/HDR_5*%
X198578690Y-98366270D03*
%TO.P,J3,23,Pin_23*%
%TO.N,GND*%
X201118690Y-100906270D03*
%TO.P,J3,24,Pin_24*%
%TO.N,/HDR_4*%
X198578690Y-100906270D03*
%TO.P,J3,25,Pin_25*%
%TO.N,GND*%
X201118690Y-103446270D03*
%TO.P,J3,26,Pin_26*%
%TO.N,/HDR_3*%
X198578690Y-103446270D03*
%TO.P,J3,27,Pin_27*%
%TO.N,GND*%
X201118690Y-105986270D03*
%TO.P,J3,28,Pin_28*%
%TO.N,/HDR_2*%
X198578690Y-105986270D03*
%TO.P,J3,29,Pin_29*%
%TO.N,GND*%
X201118690Y-108526270D03*
%TO.P,J3,30,Pin_30*%
%TO.N,/HDR_1*%
X198578690Y-108526270D03*
%TO.P,J3,31,Pin_31*%
%TO.N,GND*%
X201118690Y-111066270D03*
%TO.P,J3,32,Pin_32*%
%TO.N,/HDR_0*%
X198578690Y-111066270D03*
%TD*%
D25*
%TO.N,VSS*%
X230850000Y-55840000D03*
X231300000Y-58650000D03*
%TO.N,GND*%
X229030000Y-54810000D03*
X219770000Y-62680000D03*
%TO.N,VSS*%
X235300000Y-62650000D03*
%TO.N,VCC*%
X247020000Y-59540000D03*
%TO.N,GND*%
X83628719Y-113066321D03*
X169455000Y-36748730D03*
X171250000Y-83687460D03*
X172450000Y-147300000D03*
X133350000Y-99443730D03*
X171250000Y-146100000D03*
X239470000Y-128720000D03*
X126180000Y-79497460D03*
X126285000Y-47558730D03*
X162700000Y-115650000D03*
X81611310Y-125533730D03*
X171355000Y-51748730D03*
X236700000Y-52500000D03*
X87861310Y-127983730D03*
X137920000Y-77517460D03*
X159850000Y-141100000D03*
X66741310Y-121203730D03*
X60897500Y-84217500D03*
X171972500Y-71168730D03*
X91511310Y-109833730D03*
X128555000Y-51833730D03*
X137920000Y-108723730D03*
X91000000Y-118250000D03*
X142150000Y-108543730D03*
X208118690Y-44886270D03*
X163350000Y-36450000D03*
X154680599Y-145876270D03*
X190418690Y-40286270D03*
X172555000Y-52948730D03*
X169350000Y-68687460D03*
X65791310Y-94753730D03*
X130150000Y-102243730D03*
X150818690Y-125386270D03*
X171902500Y-130911270D03*
X91000000Y-121000000D03*
X172400000Y-118293730D03*
X194050000Y-49700000D03*
X154973690Y-37135000D03*
X105341310Y-114803730D03*
X96641310Y-124553730D03*
X172400000Y-149500000D03*
X150925000Y-31050000D03*
X235880000Y-93404500D03*
X160818230Y-125756770D03*
X130200000Y-111043730D03*
X128200000Y-74997460D03*
X150950000Y-149571270D03*
X171972500Y-133581270D03*
X159955000Y-46748730D03*
X133250000Y-45300000D03*
X169350000Y-131100000D03*
X231850000Y-56150000D03*
X230850000Y-54350000D03*
X133150000Y-43350000D03*
X236410000Y-57117500D03*
X154868690Y-131486270D03*
X238057500Y-64215000D03*
X171250000Y-114893730D03*
X227580000Y-88220000D03*
X133150000Y-108450000D03*
X154868690Y-69073730D03*
X133350000Y-130650000D03*
X150705000Y-41848730D03*
X88250000Y-118250000D03*
X99700000Y-66650000D03*
X79861310Y-129183730D03*
X150950000Y-87158730D03*
X165980599Y-73525588D03*
X154868690Y-100280000D03*
X92150000Y-62900000D03*
X166085599Y-41586858D03*
X163200000Y-99768230D03*
X75050000Y-95950000D03*
X125325000Y-40528730D03*
X133455000Y-36298730D03*
X133775000Y-50530000D03*
X172450000Y-116093730D03*
X96350000Y-55350000D03*
X105361310Y-125683730D03*
X212600000Y-93404500D03*
X160818230Y-94550500D03*
X137920000Y-139930000D03*
X99161310Y-111733730D03*
X128450000Y-146185000D03*
X154680599Y-83463730D03*
X162700000Y-146850000D03*
X142150000Y-139750000D03*
X214810000Y-49390000D03*
X229020000Y-116600000D03*
X130150000Y-71037460D03*
X84029011Y-98928230D03*
X142200000Y-75487460D03*
X92561310Y-129033730D03*
X88250000Y-121000000D03*
X89311310Y-109283730D03*
X133050000Y-106500000D03*
X130200000Y-142250000D03*
X150570000Y-94330000D03*
X97591310Y-114503730D03*
X163150000Y-130974500D03*
X101841310Y-119103730D03*
X133000000Y-137650000D03*
X150910000Y-62920000D03*
X81261310Y-119383730D03*
X87241310Y-99453730D03*
X90251310Y-81213730D03*
X172077500Y-39230000D03*
X123205000Y-46448730D03*
X232900000Y-39400000D03*
X172400000Y-87087460D03*
X150600000Y-73787460D03*
X85441310Y-95403730D03*
X142305000Y-43548730D03*
X76900000Y-111850000D03*
X171972500Y-102375000D03*
X171902500Y-99705000D03*
X163150001Y-68561960D03*
X165085599Y-57567460D03*
X162700000Y-84400000D03*
X247460000Y-93310000D03*
X164980599Y-89506190D03*
X142255000Y-45398730D03*
X92811310Y-109833730D03*
X99800000Y-57950000D03*
X240500000Y-52550000D03*
X131050000Y-75250000D03*
X74511310Y-117683730D03*
X138025000Y-45578730D03*
X128200000Y-137410000D03*
X126570000Y-106323730D03*
X133000000Y-75300000D03*
X150955000Y-46748730D03*
X131050000Y-137600000D03*
X231850000Y-57850000D03*
X90811310Y-128083730D03*
X154785599Y-51525000D03*
X133670000Y-144881270D03*
X72400000Y-73450000D03*
X165980599Y-135938128D03*
X160923230Y-31405500D03*
X69541310Y-88953730D03*
X84779011Y-96491431D03*
X154680599Y-114670000D03*
X131100000Y-106450000D03*
X100550000Y-113800000D03*
X142200000Y-137900000D03*
X169350000Y-99893730D03*
X150850000Y-78687460D03*
X160818230Y-63344230D03*
X85111310Y-123083730D03*
X164980599Y-151918730D03*
X115200000Y-50650000D03*
X215810000Y-116550000D03*
X150950000Y-118365000D03*
X114950000Y-69000000D03*
X65791310Y-95903730D03*
X230730000Y-59780000D03*
X142150000Y-77337460D03*
X74850000Y-103678730D03*
X237375000Y-37325000D03*
X64741310Y-89903730D03*
X123100000Y-140800000D03*
X222025000Y-49076401D03*
X133350000Y-68237460D03*
X58691310Y-97403730D03*
X246050000Y-62050000D03*
X67991310Y-90103730D03*
X246820000Y-58470000D03*
X226250000Y-128620000D03*
X142200000Y-106693730D03*
X74461310Y-122183730D03*
X224230000Y-93404500D03*
X159850000Y-109893730D03*
X125220000Y-72467460D03*
X84841310Y-109503730D03*
X131200000Y-43300000D03*
X123100000Y-109593730D03*
X97561310Y-115903730D03*
X125220000Y-134880000D03*
X220880000Y-55480000D03*
X221460000Y-50420000D03*
X165980599Y-104731858D03*
X97700000Y-66100000D03*
X133670000Y-113675000D03*
X128305000Y-43058730D03*
X133670000Y-82468730D03*
X76841310Y-88408730D03*
X126180000Y-141910000D03*
X164980599Y-120712460D03*
X150850000Y-109893730D03*
X150600000Y-136200000D03*
X98850000Y-48100000D03*
X81961310Y-109733730D03*
X131150000Y-108400000D03*
X133100000Y-139600000D03*
X131100000Y-139550000D03*
X172505000Y-55148730D03*
X70191310Y-102678730D03*
X72491310Y-87803730D03*
X150600000Y-104993730D03*
X128450000Y-114978730D03*
X162800000Y-52500000D03*
X171902500Y-68498730D03*
X225825000Y-49026401D03*
X130150000Y-133450000D03*
X131000000Y-77000000D03*
X131250000Y-45250000D03*
X130200000Y-79837460D03*
X66741310Y-105553730D03*
X128450000Y-83772460D03*
X87911310Y-129383730D03*
X159850000Y-78687460D03*
X150850000Y-141100000D03*
X89660000Y-119440000D03*
X133000000Y-77000000D03*
X123100000Y-78387460D03*
X99111310Y-113133730D03*
X87485000Y-104397420D03*
X97700000Y-74900000D03*
X126470000Y-110673730D03*
X66991310Y-111903730D03*
X90261310Y-109783730D03*
X97911310Y-122883730D03*
X172007500Y-36560000D03*
X151055000Y-55220000D03*
X130255000Y-39098730D03*
X172450000Y-84887460D03*
X115200000Y-59900000D03*
X130305000Y-47898730D03*
X125220000Y-103673730D03*
%TO.N,+1V1*%
X60741310Y-114973730D03*
X79667219Y-90052460D03*
X67708859Y-97496681D03*
X64740810Y-91483730D03*
%TO.N,+3.3V*%
X247650000Y-62100000D03*
X138020000Y-106623730D03*
X224720000Y-128610000D03*
X83391310Y-96729230D03*
X74850000Y-102128730D03*
X76941310Y-89303730D03*
X160700000Y-58150000D03*
X237920000Y-128710000D03*
X146990000Y-153180000D03*
X73691310Y-91453730D03*
X138020000Y-75417460D03*
X138020000Y-137830000D03*
X144310000Y-153150000D03*
X99150000Y-59950000D03*
X145600000Y-153140000D03*
X65841310Y-93603730D03*
X62541310Y-95753730D03*
X110100000Y-56400000D03*
X69391310Y-90003730D03*
X70191310Y-101128730D03*
X160700000Y-59350000D03*
X111250000Y-56700000D03*
X110500000Y-57850000D03*
X138125000Y-43478730D03*
%TO.N,+5V*%
X97450000Y-70500000D03*
X99100000Y-50400000D03*
X92000000Y-74400000D03*
X91400000Y-73550000D03*
X92700000Y-75200000D03*
X97600000Y-61700000D03*
X110100000Y-49100000D03*
X110100000Y-51800000D03*
%TO.N,+3.3VA*%
X112275000Y-70675000D03*
X134060000Y-101980000D03*
X102087500Y-117187500D03*
X82650000Y-117525000D03*
X93925000Y-112725000D03*
X133775000Y-80969230D03*
X84925000Y-111600000D03*
X83303800Y-125878800D03*
X133825000Y-71075000D03*
X98600000Y-68950000D03*
X93135810Y-114607996D03*
X93600000Y-127375000D03*
X133903810Y-48993730D03*
X133625000Y-143200000D03*
X133975000Y-133425000D03*
X98700000Y-121300000D03*
X133853810Y-39118730D03*
X95025000Y-125454500D03*
X85550000Y-126350000D03*
X133875000Y-112075000D03*
%TO.N,VCC*%
X167650000Y-132550000D03*
X157000000Y-38000000D03*
X241310000Y-96360000D03*
X167400000Y-83443230D03*
X228020000Y-96410000D03*
X167750000Y-51504500D03*
X157700000Y-82200000D03*
X158450000Y-128850000D03*
X158000000Y-113200000D03*
X167850000Y-114650000D03*
X205450000Y-96466770D03*
X232475000Y-54375000D03*
X157000000Y-33000000D03*
X157700000Y-144250000D03*
X167100000Y-146000000D03*
X215920000Y-96400000D03*
X166950000Y-38050000D03*
X158150000Y-66500000D03*
X167500000Y-70150000D03*
X158150000Y-97750000D03*
X157000000Y-50000000D03*
X224125000Y-48976401D03*
X193450000Y-46000000D03*
X216340000Y-49420000D03*
X167350000Y-101350000D03*
X225730000Y-50076401D03*
X193400000Y-47150000D03*
%TO.N,VSS*%
X235800000Y-37350000D03*
X162450000Y-134950000D03*
X229165500Y-87300000D03*
X162000000Y-73000000D03*
X160250000Y-81050000D03*
X208250000Y-47150000D03*
X219875000Y-49126401D03*
X161000000Y-65000000D03*
X160650000Y-96400000D03*
X160450000Y-112400000D03*
X161950000Y-120500000D03*
X240950000Y-87450000D03*
X205400000Y-87400000D03*
X160000000Y-33000000D03*
X162000000Y-57050000D03*
X217300000Y-87300000D03*
X162000000Y-89000000D03*
X160050000Y-49250000D03*
X222160000Y-57660000D03*
X162000000Y-41000000D03*
X160450000Y-143525500D03*
X231300000Y-58650000D03*
X160600000Y-127600000D03*
X161950000Y-151350000D03*
X208200000Y-45950000D03*
X162100000Y-104300000D03*
%TO.N,/DDS 1/AMP_IN_3N*%
X164737500Y-126456270D03*
X155287500Y-128906270D03*
%TO.N,/DDS 1/FB3*%
X165987500Y-127506270D03*
X155237500Y-127106270D03*
%TO.N,/HDR_0*%
X211965001Y-111700600D03*
X223605001Y-111690600D03*
X235300000Y-96550000D03*
X235300000Y-111700000D03*
X223605001Y-96540600D03*
X211965001Y-96550600D03*
%TO.N,/HDR_1*%
X234500000Y-96550000D03*
X211165001Y-109150600D03*
X211165001Y-96550600D03*
X234500000Y-109150000D03*
X222805001Y-109140600D03*
X222805001Y-96540600D03*
%TO.N,/HDR_2*%
X233650000Y-96550000D03*
X210315001Y-96550600D03*
X233650000Y-106600000D03*
X210315001Y-106600600D03*
X221955001Y-96540600D03*
X221955001Y-106590600D03*
%TO.N,/HDR_3*%
X221155001Y-104240600D03*
X209515001Y-96550600D03*
X232850000Y-104250000D03*
X232850000Y-96550000D03*
X209515001Y-104250600D03*
X221155001Y-96540600D03*
%TO.N,/DDS 2/AMP_IN_3N*%
X164737500Y-95250000D03*
X155287500Y-97700000D03*
%TO.N,/DDS 2/FB3*%
X165987500Y-96300000D03*
X155237500Y-95900000D03*
%TO.N,/HDR_4*%
X220355001Y-101740600D03*
X232050000Y-96550000D03*
X220355001Y-96540600D03*
X232050000Y-101750000D03*
X208715001Y-101750600D03*
X208715001Y-96550600D03*
%TO.N,/HDR_5*%
X231200000Y-96550000D03*
X207865001Y-96550600D03*
X219505001Y-99190600D03*
X231200000Y-99200000D03*
X207865001Y-99200600D03*
X219505001Y-96540600D03*
%TO.N,/DDS 3/AMP_IN_3N*%
X164737500Y-64043730D03*
X155287500Y-66493730D03*
%TO.N,/DDS 3/FB3*%
X155237500Y-64693730D03*
X165987500Y-65093730D03*
%TO.N,/HDR_10*%
X219019999Y-85039400D03*
X207375000Y-85050000D03*
X219019999Y-87314400D03*
X230729999Y-87314400D03*
X207375000Y-87325000D03*
X230729999Y-85039400D03*
%TO.N,/HDR_11*%
X231504999Y-82489400D03*
X208175000Y-87325000D03*
X219794999Y-82489400D03*
X231529999Y-87314400D03*
X219819999Y-87314400D03*
X208150000Y-82500000D03*
%TO.N,/DDS 4/AMP_IN_3N*%
X164842500Y-32105000D03*
X155392500Y-34555000D03*
%TO.N,/DDS 4/FB3*%
X155342500Y-32755000D03*
X166092500Y-33155000D03*
%TO.N,/HDR_12*%
X208970000Y-79930000D03*
X208970000Y-87330000D03*
X220614999Y-79919400D03*
X232324999Y-87319400D03*
X232324999Y-79919400D03*
X220614999Y-87319400D03*
%TO.N,/HDR_13*%
X221574999Y-77409400D03*
X233284999Y-87319400D03*
X209930000Y-87330000D03*
X221574999Y-87319400D03*
X233284999Y-77409400D03*
X209930000Y-77420000D03*
%TO.N,/HDR_14*%
X210660000Y-74900000D03*
X210660000Y-87330000D03*
X234014999Y-87319400D03*
X222304999Y-87319400D03*
X222304999Y-74889400D03*
X234014999Y-74889400D03*
%TO.N,/HDR_15*%
X211360000Y-87330000D03*
X234714999Y-87319400D03*
X223004999Y-72359400D03*
X211360000Y-72370000D03*
X223004999Y-87319400D03*
X234714999Y-72359400D03*
%TO.N,/Analog/SENSE_IN_1*%
X218030000Y-63013599D03*
X216000000Y-87350000D03*
%TO.N,/Analog/SENSE_IN_2*%
X226260000Y-63580000D03*
X239850000Y-87400000D03*
%TO.N,/CLK_0P*%
X122700000Y-43550000D03*
X126900000Y-44150000D03*
%TO.N,/CLK_1P*%
X120400000Y-107150000D03*
X125050000Y-107049500D03*
%TO.N,/CLK_3P*%
X121750000Y-75350000D03*
X126450000Y-76099500D03*
%TO.N,/uC_CLKOUT*%
X75250000Y-91250000D03*
X79500000Y-109400000D03*
%TO.N,/CLK_2P*%
X125950000Y-138249500D03*
X120200000Y-138250000D03*
%TO.N,/~{RESET}*%
X139250000Y-104450000D03*
X138600000Y-135800000D03*
X137100000Y-55700000D03*
X139250000Y-41198230D03*
X137050000Y-59250000D03*
X82150000Y-93025500D03*
X62000000Y-118000000D03*
X85500000Y-115200000D03*
X85650000Y-104350000D03*
X138250000Y-72900000D03*
X85650000Y-105950000D03*
%TO.N,Net-(U7-OUT1)*%
X172012500Y-148311270D03*
X159122500Y-145131270D03*
%TO.N,Net-(U8-OUT2)*%
X159712500Y-128921270D03*
X166832500Y-128891270D03*
%TO.N,Net-(U10-OUT1)*%
X159122500Y-113925000D03*
X172012500Y-117105000D03*
%TO.N,Net-(U11-OUT2)*%
X166832500Y-97685000D03*
X159712500Y-97715000D03*
%TO.N,Net-(U13-OUT1)*%
X172012500Y-85898730D03*
X159122500Y-82718730D03*
%TO.N,Net-(U14-OUT2)*%
X159712500Y-66508730D03*
X166832500Y-66478730D03*
%TO.N,Net-(U16-OUT1)*%
X159227500Y-50780000D03*
X172117500Y-53960000D03*
%TO.N,Net-(U17-OUT2)*%
X159817500Y-34570000D03*
X166937500Y-34540000D03*
%TO.N,/VCCS_Iout*%
X203930000Y-87690000D03*
X202120000Y-59960000D03*
%TO.N,/SPI0_RX*%
X139100000Y-60600000D03*
X135859434Y-136533934D03*
X139575500Y-105450000D03*
X139550000Y-74200000D03*
X139600000Y-42200000D03*
X139250000Y-55700000D03*
X121500000Y-141400000D03*
%TO.N,/~{DDS1_CS}*%
X121300000Y-139900000D03*
X137250000Y-136050000D03*
%TO.N,/SPI0_SCLK*%
X138950000Y-47205500D03*
X138750000Y-110350500D03*
X141200000Y-58850000D03*
X129300000Y-149550000D03*
X105300000Y-151900000D03*
X141200000Y-55750000D03*
X138800000Y-141500000D03*
X137790184Y-79144230D03*
%TO.N,/SPI0_TX*%
X140050000Y-110150000D03*
X140350000Y-141300000D03*
X142150000Y-58850000D03*
X104000000Y-151850000D03*
X138850000Y-79144230D03*
X141300000Y-46900000D03*
X142150000Y-55700000D03*
%TO.N,/~{DDS2_CS}*%
X75335500Y-100700000D03*
X81800000Y-103950000D03*
X138050000Y-104750000D03*
X79500000Y-101650000D03*
%TO.N,/~{CLK_CS}*%
X81261810Y-118300000D03*
X77275500Y-101000000D03*
%TO.N,/SPI1_TX*%
X81409786Y-115574500D03*
X78800000Y-112400000D03*
%TO.N,/~{SR_CLR}*%
X217050000Y-129150000D03*
X172800000Y-93400000D03*
X82700000Y-102750000D03*
X217050000Y-126950000D03*
X128750000Y-93150000D03*
X211750000Y-129950000D03*
%TO.N,/~{SR_OE}*%
X82700000Y-101600000D03*
X220900000Y-132850000D03*
X220900000Y-127000000D03*
X128724598Y-92100000D03*
X172850000Y-92200000D03*
%TO.N,/SR_CLK*%
X172850000Y-91050000D03*
X82700000Y-100500000D03*
X219600000Y-127000000D03*
X128687299Y-91087299D03*
X218950000Y-131324500D03*
X218350000Y-126950000D03*
%TO.N,/SR_SER*%
X216100000Y-128150000D03*
X82700000Y-99550000D03*
X128700000Y-90050000D03*
X172800000Y-89950000D03*
%TO.N,/~{DDS_SYNC}*%
X136400000Y-110350500D03*
X136600000Y-79144230D03*
X136550000Y-47205500D03*
X136450000Y-141556770D03*
X138150000Y-55700000D03*
X138150000Y-58500000D03*
X82850000Y-91050000D03*
%TO.N,/~{DDS3_CS}*%
X136750000Y-73550000D03*
X88290000Y-86080000D03*
X81250000Y-90930000D03*
X107820000Y-86010000D03*
%TO.N,/~{AMP_PD}*%
X166000000Y-114843730D03*
X168450000Y-35350000D03*
X159050000Y-115743730D03*
X168450000Y-67137460D03*
X167900000Y-44200000D03*
X159050000Y-146950000D03*
X159550000Y-69337460D03*
X167950000Y-46350000D03*
X168450000Y-129550000D03*
X167050000Y-49850000D03*
X159155000Y-52598730D03*
X159550000Y-131750000D03*
X166000000Y-146050000D03*
X166000000Y-83637460D03*
X166105000Y-51698730D03*
X159550000Y-100543730D03*
X79812251Y-91212349D03*
X168450000Y-98343730D03*
X159050000Y-84537460D03*
%TO.N,/~{EIT_PD}*%
X78950000Y-89450000D03*
X124200000Y-55224500D03*
X159655000Y-37398730D03*
X125650000Y-54250000D03*
%TO.N,/MUX_EN*%
X247300000Y-87300000D03*
X236450000Y-87400000D03*
X213350000Y-87350000D03*
X77900000Y-90050000D03*
X224650000Y-87350000D03*
%TO.N,/~{DDS4_CS}*%
X136650000Y-41574500D03*
X76850000Y-90850000D03*
%TO.N,/~{AN_CS}*%
X73756089Y-90493911D03*
X247350000Y-69400000D03*
%TO.N,Net-(U21-OUT)*%
X223100000Y-49000000D03*
X239250000Y-52600000D03*
%TO.N,/Mux Control/CTRL_1*%
X218410000Y-116070000D03*
X213266975Y-90507877D03*
%TO.N,/Mux Control/CTRL_2*%
X219620000Y-116070000D03*
X214296848Y-90513152D03*
%TO.N,/Mux Control/CTRL_3*%
X220930000Y-116070000D03*
X214090000Y-96390000D03*
%TO.N,/Mux Control/CTRL_4*%
X222160000Y-116070000D03*
X224240000Y-90490000D03*
%TO.N,/Mux Control/CTRL_5*%
X225190000Y-90490000D03*
X223450000Y-116070000D03*
%TO.N,/Mux Control/CTRL_6*%
X226300000Y-90525500D03*
X224720000Y-116070000D03*
%TO.N,/Mux Control/CTRL_7*%
X225550000Y-96380000D03*
X223430000Y-126980000D03*
%TO.N,/Mux Control/CTRL_0*%
X212260000Y-90525500D03*
X217030000Y-116070000D03*
%TO.N,/Mux Control/CTRL_9*%
X236850000Y-90525500D03*
X231625000Y-116070000D03*
%TO.N,/Mux Control/CTRL_10*%
X232835000Y-116070000D03*
X237770000Y-90525500D03*
%TO.N,/Mux Control/CTRL_11*%
X237250000Y-96300000D03*
X234050000Y-116100000D03*
%TO.N,/Mux Control/CTRL_12*%
X235375000Y-116070000D03*
X246750000Y-91060000D03*
%TO.N,/Mux Control/CTRL_13*%
X236665000Y-116070000D03*
X247817299Y-91017299D03*
%TO.N,/Mux Control/CTRL_14*%
X248780000Y-91050000D03*
X237935000Y-116070000D03*
%TO.N,/Mux Control/CTRL_15*%
X239550000Y-116090000D03*
X248840000Y-96410000D03*
%TO.N,/Mux Control/CTRL_8*%
X235910000Y-90525500D03*
X230245000Y-116070000D03*
%TD*%
D26*
%TO.N,/Analog/SENSE_IN_2*%
X229080000Y-63580000D02*
X239850000Y-74350000D01*
X239850000Y-74350000D02*
X239850000Y-87400000D01*
X226260000Y-63580000D02*
X229080000Y-63580000D01*
%TO.N,/Analog/SENSE_IN_1*%
X216000000Y-65043599D02*
X216330000Y-64713599D01*
X216000000Y-87350000D02*
X216000000Y-65043599D01*
D27*
%TO.N,/DDS 1/AMP_IN_3N*%
X157087500Y-128906270D02*
X159537500Y-126456270D01*
X155287500Y-128906270D02*
X157087500Y-128906270D01*
X159537500Y-126456270D02*
X164737500Y-126456270D01*
D26*
%TO.N,/DDS 1/FB3*%
X155237500Y-127106270D02*
X158787500Y-123556270D01*
X165987500Y-126680965D02*
X165987500Y-127506270D01*
X158787500Y-123556270D02*
X162862805Y-123556270D01*
X162862805Y-123556270D02*
X165987500Y-126680965D01*
%TO.N,/HDR_0*%
X235300000Y-96550000D02*
X235300000Y-111700000D01*
X223605001Y-96540600D02*
X223605001Y-111690600D01*
X211965001Y-96550600D02*
X211965001Y-111700600D01*
%TO.N,/HDR_1*%
X222805001Y-96540600D02*
X222805001Y-109140600D01*
X234500000Y-96550000D02*
X234500000Y-109150000D01*
X211165001Y-96550600D02*
X211165001Y-109150600D01*
%TO.N,/HDR_2*%
X233650000Y-96550000D02*
X233650000Y-106600000D01*
X210315001Y-96550600D02*
X210315001Y-106600600D01*
X221955001Y-96540600D02*
X221955001Y-106590600D01*
%TO.N,/HDR_3*%
X221155001Y-96540600D02*
X221155001Y-104240600D01*
X209515001Y-96550600D02*
X209515001Y-104250600D01*
X232850000Y-96550000D02*
X232850000Y-104250000D01*
D27*
%TO.N,/DDS 2/AMP_IN_3N*%
X159537500Y-95250000D02*
X164737500Y-95250000D01*
X157087500Y-97700000D02*
X159537500Y-95250000D01*
X155287500Y-97700000D02*
X157087500Y-97700000D01*
D26*
%TO.N,/DDS 2/FB3*%
X158787500Y-92350000D02*
X162862805Y-92350000D01*
X155237500Y-95900000D02*
X158787500Y-92350000D01*
X165987500Y-95474695D02*
X165987500Y-96300000D01*
X162862805Y-92350000D02*
X165987500Y-95474695D01*
%TO.N,/HDR_4*%
X208715001Y-96550600D02*
X208715001Y-101750600D01*
X220355001Y-96540600D02*
X220355001Y-101740600D01*
X232050000Y-96550000D02*
X232050000Y-101750000D01*
%TO.N,/HDR_5*%
X231200000Y-96550000D02*
X231200000Y-99200000D01*
X219505001Y-96540600D02*
X219505001Y-99190600D01*
X207865001Y-96550600D02*
X207865001Y-99200600D01*
D27*
%TO.N,/DDS 3/AMP_IN_3N*%
X157087500Y-66493730D02*
X159537500Y-64043730D01*
X159537500Y-64043730D02*
X164737500Y-64043730D01*
X155287500Y-66493730D02*
X157087500Y-66493730D01*
D26*
%TO.N,/DDS 3/FB3*%
X155237500Y-64693730D02*
X158787500Y-61143730D01*
X158787500Y-61143730D02*
X162862805Y-61143730D01*
X162862805Y-61143730D02*
X165987500Y-64268425D01*
X165987500Y-64268425D02*
X165987500Y-65093730D01*
%TO.N,/HDR_10*%
X230729999Y-87314400D02*
X230729999Y-85039400D01*
X219019999Y-87314400D02*
X219019999Y-85039400D01*
X207375000Y-87325000D02*
X207375000Y-85050000D01*
%TO.N,/HDR_11*%
X231529999Y-82514400D02*
X231504999Y-82489400D01*
X208175000Y-82525000D02*
X208150000Y-82500000D01*
X219819999Y-82514400D02*
X219794999Y-82489400D01*
X208175000Y-87325000D02*
X208175000Y-82525000D01*
X219819999Y-87314400D02*
X219819999Y-82514400D01*
X231529999Y-87314400D02*
X231529999Y-82514400D01*
D27*
%TO.N,/DDS 4/AMP_IN_3N*%
X155392500Y-34555000D02*
X157192500Y-34555000D01*
X159642500Y-32105000D02*
X164842500Y-32105000D01*
X157192500Y-34555000D02*
X159642500Y-32105000D01*
D26*
%TO.N,/DDS 4/FB3*%
X158892500Y-29205000D02*
X162967805Y-29205000D01*
X155342500Y-32755000D02*
X158892500Y-29205000D01*
X166092500Y-32329695D02*
X166092500Y-33155000D01*
X162967805Y-29205000D02*
X166092500Y-32329695D01*
%TO.N,/HDR_12*%
X220614999Y-87319400D02*
X220614999Y-79919400D01*
X232324999Y-87319400D02*
X232324999Y-79919400D01*
X208970000Y-87330000D02*
X208970000Y-79930000D01*
%TO.N,/HDR_13*%
X221574999Y-87319400D02*
X221574999Y-77409400D01*
X233284999Y-87319400D02*
X233284999Y-77409400D01*
X209930000Y-87330000D02*
X209930000Y-77420000D01*
%TO.N,/HDR_14*%
X210660000Y-87330000D02*
X210660000Y-74900000D01*
X222304999Y-87319400D02*
X222304999Y-74889400D01*
X234014999Y-87319400D02*
X234014999Y-74889400D01*
%TO.N,/HDR_15*%
X234714999Y-87319400D02*
X234714999Y-72359400D01*
X223004999Y-87319400D02*
X223004999Y-72359400D01*
X211360000Y-87330000D02*
X211360000Y-72370000D01*
%TO.N,/Analog/SENSE_IN_1*%
X216330000Y-64713599D02*
X218030000Y-63013599D01*
D27*
%TO.N,/CLK_0P*%
X126900000Y-44150000D02*
X123300000Y-44150000D01*
X123300000Y-44150000D02*
X122700000Y-43550000D01*
%TO.N,/CLK_1P*%
X120400000Y-107150000D02*
X124949500Y-107150000D01*
X124949500Y-107150000D02*
X125050000Y-107049500D01*
%TO.N,/CLK_3P*%
X126450000Y-76099500D02*
X122499500Y-76099500D01*
X122499500Y-76099500D02*
X121750000Y-75350000D01*
D26*
%TO.N,/uC_CLKOUT*%
X82666310Y-95483690D02*
X82666310Y-97754035D01*
X80900000Y-108000000D02*
X79500000Y-109400000D01*
X83350000Y-92500000D02*
X83350000Y-94800000D01*
X75950000Y-91250000D02*
X76800000Y-92100000D01*
X76800000Y-92100000D02*
X82950000Y-92100000D01*
X82950000Y-92100000D02*
X83350000Y-92500000D01*
X83350000Y-94800000D02*
X82666310Y-95483690D01*
X75250000Y-91250000D02*
X75950000Y-91250000D01*
X82666310Y-97754035D02*
X80900000Y-99520345D01*
X80900000Y-99520345D02*
X80900000Y-108000000D01*
D27*
%TO.N,/CLK_2P*%
X120200500Y-138249500D02*
X120200000Y-138250000D01*
X125950000Y-138249500D02*
X120200500Y-138249500D01*
D26*
%TO.N,/~{RESET}*%
X85530000Y-115230000D02*
X85500000Y-115200000D01*
X129829695Y-102948730D02*
X130905965Y-104025000D01*
X138850500Y-104849500D02*
X138850500Y-104974805D01*
X77400000Y-116650000D02*
X80900000Y-120150000D01*
X85530000Y-118870000D02*
X85530000Y-115230000D01*
X85650000Y-104350000D02*
X87051270Y-102948730D01*
X82150000Y-93025500D02*
X71074500Y-93025500D01*
X137150000Y-105850000D02*
X134600000Y-108400000D01*
X139250000Y-41328425D02*
X135825000Y-44753425D01*
X138825000Y-104025000D02*
X139250000Y-104450000D01*
X62000000Y-118000000D02*
X62000000Y-117900000D01*
X139250000Y-41198230D02*
X139250000Y-41328425D01*
X63200000Y-100900000D02*
X63200000Y-116700000D01*
X134850000Y-100050000D02*
X139250000Y-104450000D01*
X138250000Y-72900000D02*
X137050000Y-71700000D01*
X84250000Y-120150000D02*
X85530000Y-118870000D01*
X134600000Y-108400000D02*
X134600000Y-131800000D01*
X87051270Y-102948730D02*
X129829695Y-102948730D01*
X85650000Y-115050000D02*
X85650000Y-105950000D01*
X71074500Y-93025500D02*
X63200000Y-100900000D01*
X138250000Y-72900000D02*
X138250000Y-73311940D01*
X63250000Y-116650000D02*
X77400000Y-116650000D01*
X138250000Y-73311940D02*
X134850000Y-76711940D01*
X135825000Y-54425000D02*
X137100000Y-55700000D01*
X134850000Y-76711940D02*
X134850000Y-100050000D01*
X135825000Y-44753425D02*
X135825000Y-54425000D01*
X139250000Y-104450000D02*
X138850500Y-104849500D01*
X137975305Y-105850000D02*
X137150000Y-105850000D01*
X80900000Y-120150000D02*
X84250000Y-120150000D01*
X62000000Y-117900000D02*
X63200000Y-116700000D01*
X63200000Y-116700000D02*
X63250000Y-116650000D01*
X138850500Y-104974805D02*
X137975305Y-105850000D01*
X85500000Y-115200000D02*
X85650000Y-115050000D01*
X130905965Y-104025000D02*
X138825000Y-104025000D01*
X137050000Y-71700000D02*
X137050000Y-59250000D01*
X134600000Y-131800000D02*
X138600000Y-135800000D01*
%TO.N,Net-(U7-OUT1)*%
X168832500Y-145131270D02*
X172012500Y-148311270D01*
X159122500Y-145131270D02*
X168832500Y-145131270D01*
%TO.N,Net-(U8-OUT2)*%
X159742500Y-128891270D02*
X159712500Y-128921270D01*
X166832500Y-128891270D02*
X159742500Y-128891270D01*
%TO.N,Net-(U10-OUT1)*%
X168832500Y-113925000D02*
X172012500Y-117105000D01*
X159122500Y-113925000D02*
X168832500Y-113925000D01*
%TO.N,Net-(U11-OUT2)*%
X166832500Y-97685000D02*
X159742500Y-97685000D01*
X159742500Y-97685000D02*
X159712500Y-97715000D01*
%TO.N,Net-(U13-OUT1)*%
X168832500Y-82718730D02*
X172012500Y-85898730D01*
X159122500Y-82718730D02*
X168832500Y-82718730D01*
%TO.N,Net-(U14-OUT2)*%
X166832500Y-66478730D02*
X159742500Y-66478730D01*
X159742500Y-66478730D02*
X159712500Y-66508730D01*
%TO.N,Net-(U16-OUT1)*%
X159227500Y-50780000D02*
X168937500Y-50780000D01*
X168937500Y-50780000D02*
X172117500Y-53960000D01*
%TO.N,Net-(U17-OUT2)*%
X166937500Y-34540000D02*
X159847500Y-34540000D01*
X159847500Y-34540000D02*
X159817500Y-34570000D01*
%TO.N,/VCCS_Iout*%
X202120000Y-59960000D02*
X203930000Y-61770000D01*
X203930000Y-61770000D02*
X203930000Y-87690000D01*
%TO.N,/SPI0_RX*%
X137450000Y-47156179D02*
X137450000Y-53005026D01*
X138219500Y-46480500D02*
X138125679Y-46480500D01*
X139975000Y-105050500D02*
X139975000Y-84075000D01*
X139400000Y-45300000D02*
X138219500Y-46480500D01*
X139600000Y-42200000D02*
X139400000Y-42200000D01*
X138900305Y-136525000D02*
X139325000Y-136100305D01*
X135500000Y-110118425D02*
X138269695Y-107348730D01*
X135859434Y-136533934D02*
X135859434Y-138158218D01*
X137719695Y-76142460D02*
X138320305Y-76142460D01*
X139550000Y-74200000D02*
X139550000Y-61050000D01*
X138125679Y-46480500D02*
X137450000Y-47156179D01*
X136557043Y-138267652D02*
X138299695Y-136525000D01*
X135875000Y-77987155D02*
X137719695Y-76142460D01*
X139325000Y-136100305D02*
X139325000Y-115325000D01*
X121500000Y-141400000D02*
X121625000Y-141525000D01*
X139325000Y-115325000D02*
X135500000Y-111500000D01*
X139575500Y-106174500D02*
X139575500Y-105450000D01*
X123400305Y-141525000D02*
X124657653Y-140267652D01*
X135875000Y-79975000D02*
X135875000Y-77987155D01*
X136557043Y-140267652D02*
X136557043Y-138267652D01*
X133750000Y-140267652D02*
X136557043Y-140267652D01*
X139550000Y-74912765D02*
X139550000Y-74200000D01*
X139250000Y-54805026D02*
X139250000Y-55700000D01*
X138269695Y-107348730D02*
X138401270Y-107348730D01*
X139550000Y-61050000D02*
X139100000Y-60600000D01*
X138299695Y-136525000D02*
X138900305Y-136525000D01*
X121625000Y-141525000D02*
X123400305Y-141525000D01*
X137450000Y-53005026D02*
X139250000Y-54805026D01*
X139575500Y-105450000D02*
X139975000Y-105050500D01*
X135500000Y-111500000D02*
X135500000Y-110118425D01*
X139975000Y-84075000D02*
X135875000Y-79975000D01*
X138320305Y-76142460D02*
X139550000Y-74912765D01*
X135859434Y-138158218D02*
X133750000Y-140267652D01*
X138401270Y-107348730D02*
X139575500Y-106174500D01*
X139400000Y-42200000D02*
X139400000Y-45300000D01*
X124657653Y-140267652D02*
X133750000Y-140267652D01*
%TO.N,/~{DDS1_CS}*%
X126590000Y-139900000D02*
X121300000Y-139900000D01*
X137000000Y-135800000D02*
X130690000Y-135800000D01*
X130690000Y-135800000D02*
X126590000Y-139900000D01*
X137250000Y-136050000D02*
X137000000Y-135800000D01*
%TO.N,/SPI0_SCLK*%
X138750000Y-110350500D02*
X140950000Y-108150500D01*
X130275000Y-150025000D02*
X129800000Y-149550000D01*
X141475000Y-138825000D02*
X141475000Y-113075500D01*
X141200000Y-74252713D02*
X141200000Y-58850000D01*
X141200000Y-49979516D02*
X141200000Y-55750000D01*
X138800000Y-141500000D02*
X141475000Y-138825000D01*
X141475000Y-113075500D02*
X138750000Y-110350500D01*
X137790184Y-79144230D02*
X138850000Y-78084414D01*
X138850000Y-76602713D02*
X141200000Y-74252713D01*
X130275000Y-150025000D02*
X138800000Y-141500000D01*
X138950000Y-47205500D02*
X138950000Y-47729516D01*
X140950000Y-82304046D02*
X137790184Y-79144230D01*
X128400000Y-151900000D02*
X130275000Y-150025000D01*
X129800000Y-149550000D02*
X129300000Y-149550000D01*
X138950000Y-47729516D02*
X141200000Y-49979516D01*
X138850000Y-78084414D02*
X138850000Y-76602713D01*
X140950000Y-108150500D02*
X140950000Y-82304046D01*
X105300000Y-151900000D02*
X128400000Y-151900000D01*
%TO.N,/SPI0_TX*%
X143100000Y-113200000D02*
X140050000Y-110150000D01*
X143150000Y-106800000D02*
X143150000Y-83444230D01*
X143150000Y-83444230D02*
X138850000Y-79144230D01*
X140050000Y-110150000D02*
X140050000Y-109618425D01*
X142150000Y-49905500D02*
X142150000Y-55700000D01*
X104000000Y-151850000D02*
X104775000Y-152625000D01*
X138850000Y-79144230D02*
X138850000Y-78579388D01*
X140050000Y-109618425D02*
X142249695Y-107418730D01*
X141300000Y-49055500D02*
X142150000Y-49905500D01*
X129025000Y-152625000D02*
X140350000Y-141300000D01*
X138850000Y-78579388D02*
X139200000Y-78229388D01*
X142531270Y-107418730D02*
X143150000Y-106800000D01*
X142249695Y-107418730D02*
X142531270Y-107418730D01*
X141625305Y-141300000D02*
X143100000Y-139825305D01*
X139200000Y-77462155D02*
X142100000Y-74562155D01*
X141300000Y-46900000D02*
X141300000Y-49055500D01*
X140350000Y-141300000D02*
X141625305Y-141300000D01*
X139200000Y-78229388D02*
X139200000Y-77462155D01*
X142100000Y-58900000D02*
X142150000Y-58850000D01*
X143100000Y-139825305D02*
X143100000Y-113200000D01*
X104775000Y-152625000D02*
X129025000Y-152625000D01*
X142100000Y-74562155D02*
X142100000Y-58900000D01*
%TO.N,/~{DDS2_CS}*%
X138050000Y-104750000D02*
X137625770Y-105174230D01*
X83024230Y-105174230D02*
X81800000Y-103950000D01*
X75760500Y-100275000D02*
X78125000Y-100275000D01*
X78125000Y-100275000D02*
X79500000Y-101650000D01*
X75335500Y-100700000D02*
X75760500Y-100275000D01*
X137625770Y-105174230D02*
X83024230Y-105174230D01*
%TO.N,/~{CLK_CS}*%
X77900000Y-114938190D02*
X77900000Y-101624500D01*
X81261810Y-118300000D02*
X77900000Y-114938190D01*
X77900000Y-101624500D02*
X77275500Y-101000000D01*
%TO.N,/SPI1_TX*%
X81409786Y-115009786D02*
X78800000Y-112400000D01*
X81409786Y-115574500D02*
X81409786Y-115009786D01*
%TO.N,/~{SR_CLR}*%
X128750000Y-93150000D02*
X119575000Y-102325000D01*
X217050000Y-126950000D02*
X217050000Y-129150000D01*
X119575000Y-102325000D02*
X82275000Y-102325000D01*
X211750000Y-129950000D02*
X175200000Y-93400000D01*
X175200000Y-93400000D02*
X172800000Y-93400000D01*
X82275000Y-102325000D02*
X82700000Y-102750000D01*
%TO.N,/~{SR_OE}*%
X175200000Y-92200000D02*
X215850000Y-132850000D01*
X215850000Y-132850000D02*
X220900000Y-132850000D01*
X220900000Y-132850000D02*
X220900000Y-127000000D01*
X128724598Y-92100000D02*
X128650000Y-92100000D01*
X172850000Y-92200000D02*
X175200000Y-92200000D01*
X128650000Y-92100000D02*
X119150000Y-101600000D01*
X119150000Y-101600000D02*
X82700000Y-101600000D01*
%TO.N,/SR_CLK*%
X175050000Y-91050000D02*
X215324500Y-131324500D01*
X218950000Y-131324500D02*
X218950000Y-127850000D01*
X218350000Y-126950000D02*
X218350000Y-127250000D01*
X215324500Y-131324500D02*
X218950000Y-131324500D01*
X219600000Y-127000000D02*
X219600000Y-127200000D01*
X128687299Y-91112701D02*
X118950000Y-100850000D01*
X172850000Y-91050000D02*
X175050000Y-91050000D01*
X83050000Y-100850000D02*
X82700000Y-100500000D01*
X218350000Y-127250000D02*
X218950000Y-127850000D01*
X219600000Y-127200000D02*
X218950000Y-127850000D01*
X128687299Y-91087299D02*
X128687299Y-91112701D01*
X118950000Y-100850000D02*
X83050000Y-100850000D01*
%TO.N,/SR_SER*%
X216100000Y-128150000D02*
X213200000Y-128150000D01*
X83625476Y-99550000D02*
X82700000Y-99550000D01*
X175000000Y-89950000D02*
X172800000Y-89950000D01*
X118571270Y-100178730D02*
X84254206Y-100178730D01*
X213200000Y-128150000D02*
X175000000Y-89950000D01*
X128700000Y-90050000D02*
X118571270Y-100178730D01*
X84254206Y-100178730D02*
X83625476Y-99550000D01*
%TO.N,/~{DDS_SYNC}*%
X117625305Y-58500000D02*
X138150000Y-58500000D01*
X136700000Y-110350500D02*
X140450000Y-114100500D01*
X84200000Y-91050000D02*
X85700000Y-89550000D01*
X85700000Y-89550000D02*
X86575305Y-89550000D01*
X140650000Y-74307739D02*
X140650000Y-61000000D01*
X136400000Y-110350500D02*
X136700000Y-110350500D01*
X140450000Y-138425305D02*
X137318535Y-141556770D01*
X86575305Y-89550000D02*
X117625305Y-58500000D01*
X138220305Y-109448730D02*
X140600000Y-107069035D01*
X136400000Y-110350500D02*
X136717925Y-110350500D01*
X140600000Y-107069035D02*
X140600000Y-83144230D01*
X137864669Y-76492460D02*
X138465279Y-76492460D01*
X140650000Y-61000000D02*
X138150000Y-58500000D01*
X140600000Y-83144230D02*
X136600000Y-79144230D01*
X82850000Y-91050000D02*
X84200000Y-91050000D01*
X140450000Y-114100500D02*
X140450000Y-138425305D01*
X136600000Y-79144230D02*
X136600000Y-77757129D01*
X136550000Y-52600000D02*
X136550000Y-47205500D01*
X138150000Y-54200000D02*
X136550000Y-52600000D01*
X137318535Y-141556770D02*
X136450000Y-141556770D01*
X136600000Y-77757129D02*
X137864669Y-76492460D01*
X138465279Y-76492460D02*
X140650000Y-74307739D01*
X137619695Y-109448730D02*
X138220305Y-109448730D01*
X136717925Y-110350500D02*
X137619695Y-109448730D01*
X138150000Y-55700000D02*
X138150000Y-54200000D01*
%TO.N,/~{DDS3_CS}*%
X86100000Y-86080000D02*
X88290000Y-86080000D01*
X130450000Y-73550000D02*
X136750000Y-73550000D01*
X81250000Y-90930000D02*
X86100000Y-86080000D01*
X107820000Y-86010000D02*
X117990000Y-86010000D01*
X117990000Y-86010000D02*
X130450000Y-73550000D01*
%TO.N,/~{AMP_PD}*%
X159950000Y-114843730D02*
X166000000Y-114843730D01*
X159950000Y-83637460D02*
X166000000Y-83637460D01*
X154512500Y-129156575D02*
X157105925Y-131750000D01*
X154143690Y-66375225D02*
X157105925Y-69337460D01*
X159050000Y-84537460D02*
X159950000Y-83637460D01*
X159950000Y-146050000D02*
X166000000Y-146050000D01*
X161050000Y-130250000D02*
X159550000Y-131750000D01*
X154512500Y-120281230D02*
X154512500Y-129156575D01*
X158350000Y-144878465D02*
X158350000Y-146250000D01*
X158822195Y-144406270D02*
X158350000Y-144878465D01*
X157275000Y-102818730D02*
X159550000Y-100543730D01*
X167750000Y-130250000D02*
X161050000Y-130250000D01*
X158350000Y-146250000D02*
X159050000Y-146950000D01*
X159050000Y-115743730D02*
X157275000Y-113968730D01*
X168450000Y-35350000D02*
X168450000Y-43650000D01*
X159050000Y-91062195D02*
X154512500Y-95599695D01*
X157275000Y-113968730D02*
X157275000Y-102818730D01*
X159012155Y-84537460D02*
X159050000Y-84537460D01*
X159550000Y-131750000D02*
X158822195Y-132477805D01*
X157105925Y-69337460D02*
X159550000Y-69337460D01*
X154143690Y-57610040D02*
X154143690Y-66375225D01*
X159155000Y-52598730D02*
X160055000Y-51698730D01*
X89526310Y-81498290D02*
X89526310Y-80913425D01*
X154512500Y-95599695D02*
X154512500Y-97950305D01*
X168450000Y-67137460D02*
X167750000Y-67837460D01*
X159050000Y-115743730D02*
X159950000Y-114843730D01*
X159050000Y-84537460D02*
X159050000Y-91062195D01*
X167050000Y-47250000D02*
X167050000Y-49850000D01*
X156975000Y-82500305D02*
X159012155Y-84537460D01*
X160055000Y-51698730D02*
X166105000Y-51698730D01*
X159050000Y-146950000D02*
X159950000Y-146050000D01*
X159050000Y-115743730D02*
X154512500Y-120281230D01*
X161050000Y-67837460D02*
X159550000Y-69337460D01*
X161050000Y-99043730D02*
X159550000Y-100543730D01*
X159155000Y-52598730D02*
X154143690Y-57610040D01*
X167750000Y-99043730D02*
X161050000Y-99043730D01*
X154512500Y-97950305D02*
X157105925Y-100543730D01*
X159550000Y-69337460D02*
X156975000Y-71912460D01*
X168450000Y-43650000D02*
X167900000Y-44200000D01*
X156975000Y-71912460D02*
X156975000Y-82500305D01*
X157105925Y-100543730D02*
X159550000Y-100543730D01*
X168450000Y-129550000D02*
X167750000Y-130250000D01*
X157105925Y-131750000D02*
X159550000Y-131750000D01*
X168450000Y-98343730D02*
X167750000Y-99043730D01*
X167750000Y-67837460D02*
X161050000Y-67837460D01*
X158822195Y-132477805D02*
X158822195Y-144406270D01*
X112829695Y-57610040D02*
X154143690Y-57610040D01*
X79812251Y-91212349D02*
X89526310Y-81498290D01*
X167950000Y-46350000D02*
X167050000Y-47250000D01*
X89526310Y-80913425D02*
X112829695Y-57610040D01*
%TO.N,/~{EIT_PD}*%
X158500000Y-46500000D02*
X158500000Y-38553730D01*
X79050000Y-79100000D02*
X79100000Y-79050000D01*
X128000000Y-56600000D02*
X148400000Y-56600000D01*
X124200000Y-55150000D02*
X124200000Y-55224500D01*
X125650000Y-54250000D02*
X128000000Y-56600000D01*
X79050000Y-89350000D02*
X79050000Y-79100000D01*
X105772727Y-55150000D02*
X124200000Y-55150000D01*
X78950000Y-89450000D02*
X79050000Y-89350000D01*
X148400000Y-56600000D02*
X158500000Y-46500000D01*
X158500000Y-38553730D02*
X159655000Y-37398730D01*
X79100000Y-79050000D02*
X81872727Y-79050000D01*
X81872727Y-79050000D02*
X105772727Y-55150000D01*
%TO.N,/MUX_EN*%
X124729035Y-54500000D02*
X127329035Y-57100000D01*
X77900000Y-90050000D02*
X77900000Y-78824695D01*
X77900000Y-78824695D02*
X102224695Y-54500000D01*
X151200000Y-57100000D02*
X159325000Y-48975000D01*
X213350000Y-87350000D02*
X214700000Y-88700000D01*
X201483212Y-30550000D02*
X213350000Y-42416788D01*
X173550000Y-45200000D02*
X188200000Y-30550000D01*
X234905000Y-88945000D02*
X245655000Y-88945000D01*
X102224695Y-54500000D02*
X124729035Y-54500000D01*
X127329035Y-57100000D02*
X151200000Y-57100000D01*
X224150000Y-88700000D02*
X224650000Y-88200000D01*
X224395000Y-88945000D02*
X234905000Y-88945000D01*
X159325000Y-48975000D02*
X159325000Y-48949695D01*
X188200000Y-30550000D02*
X201483212Y-30550000D01*
X224150000Y-88700000D02*
X224395000Y-88945000D01*
X159325000Y-48949695D02*
X163074695Y-45200000D01*
X214700000Y-88700000D02*
X224150000Y-88700000D01*
X234905000Y-88945000D02*
X236450000Y-87400000D01*
X245655000Y-88945000D02*
X247300000Y-87300000D01*
X213350000Y-42416788D02*
X213350000Y-87350000D01*
X163074695Y-45200000D02*
X173550000Y-45200000D01*
X224650000Y-88200000D02*
X224650000Y-87350000D01*
%TO.N,/~{DDS4_CS}*%
X76768690Y-64731310D02*
X76768690Y-71454037D01*
X76768690Y-71454037D02*
X76116310Y-72106417D01*
X99700000Y-41800000D02*
X76768690Y-64731310D01*
X76116310Y-90116310D02*
X76850000Y-90850000D01*
X76116310Y-72106417D02*
X76116310Y-90116310D01*
X136424500Y-41800000D02*
X99700000Y-41800000D01*
X136650000Y-41574500D02*
X136424500Y-41800000D01*
%TO.N,/~{AN_CS}*%
X74228690Y-62131270D02*
X107504960Y-28855000D01*
X250950000Y-46050000D02*
X250950000Y-65800000D01*
X73750000Y-90487822D02*
X73750000Y-85900000D01*
X233755000Y-28855000D02*
X250950000Y-46050000D01*
X73750000Y-85900000D02*
X74228690Y-85421310D01*
X250950000Y-65800000D02*
X247350000Y-69400000D01*
X73756089Y-90493911D02*
X73750000Y-90487822D01*
X74228690Y-85421310D02*
X74228690Y-62131270D01*
X107504960Y-28855000D02*
X233755000Y-28855000D01*
%TO.N,Net-(U21-OUT)*%
X223100000Y-49000000D02*
X223100000Y-48976096D01*
X223100000Y-48976096D02*
X223824695Y-48251401D01*
X223824695Y-48251401D02*
X234901401Y-48251401D01*
X234901401Y-48251401D02*
X239250000Y-52600000D01*
%TO.N,/Mux Control/CTRL_1*%
X216700000Y-114330000D02*
X216700000Y-93940902D01*
X216700000Y-93940902D02*
X213266975Y-90507877D01*
X218410000Y-116040000D02*
X216700000Y-114330000D01*
%TO.N,/Mux Control/CTRL_2*%
X217050000Y-93266304D02*
X214296848Y-90513152D01*
X219550000Y-116040000D02*
X217050000Y-113540000D01*
X217050000Y-113540000D02*
X217050000Y-93266304D01*
%TO.N,/Mux Control/CTRL_3*%
X220930000Y-116100000D02*
X219755000Y-117275000D01*
X214090000Y-115855305D02*
X214090000Y-96390000D01*
X215509695Y-117275000D02*
X214090000Y-115855305D01*
X219755000Y-117275000D02*
X215509695Y-117275000D01*
%TO.N,/Mux Control/CTRL_4*%
X217400000Y-111430000D02*
X217400000Y-93350000D01*
X220260000Y-90490000D02*
X224240000Y-90490000D01*
X222160000Y-116190000D02*
X217400000Y-111430000D01*
X217400000Y-93350000D02*
X220260000Y-90490000D01*
%TO.N,/Mux Control/CTRL_5*%
X217750000Y-93494974D02*
X219444974Y-91800000D01*
X217750000Y-110570000D02*
X217750000Y-93494974D01*
X223970000Y-91800000D02*
X225190000Y-90580000D01*
X223450000Y-116270000D02*
X217750000Y-110570000D01*
X225190000Y-90580000D02*
X225190000Y-90490000D01*
X219444974Y-91800000D02*
X223970000Y-91800000D01*
%TO.N,/Mux Control/CTRL_6*%
X218100000Y-109660000D02*
X218100000Y-94650000D01*
X218100000Y-94650000D02*
X220070500Y-92679500D01*
X224146000Y-92679500D02*
X226300000Y-90525500D01*
X224720000Y-116280000D02*
X218100000Y-109660000D01*
X220070500Y-92679500D02*
X224146000Y-92679500D01*
%TO.N,/Mux Control/CTRL_7*%
X225550000Y-124860000D02*
X223430000Y-126980000D01*
X225550000Y-96380000D02*
X225550000Y-124860000D01*
%TO.N,/Mux Control/CTRL_0*%
X215170000Y-93435500D02*
X215170000Y-114180000D01*
X212260000Y-90525500D02*
X215170000Y-93435500D01*
X215170000Y-114180000D02*
X217030000Y-116040000D01*
%TO.N,/Mux Control/CTRL_9*%
X229540000Y-113985000D02*
X229540000Y-93104974D01*
X235710805Y-91750000D02*
X236850000Y-90610805D01*
X236850000Y-90610805D02*
X236850000Y-90525500D01*
X229540000Y-93104974D02*
X230894974Y-91750000D01*
X231625000Y-116070000D02*
X229540000Y-113985000D01*
X230894974Y-91750000D02*
X235710805Y-91750000D01*
%TO.N,/Mux Control/CTRL_10*%
X236210000Y-92210000D02*
X237770000Y-90650000D01*
X230929948Y-92210000D02*
X236210000Y-92210000D01*
X229890000Y-93249948D02*
X230929948Y-92210000D01*
X232835000Y-116070000D02*
X229890000Y-113125000D01*
X229890000Y-113125000D02*
X229890000Y-93249948D01*
X237770000Y-90650000D02*
X237770000Y-90525500D01*
%TO.N,/Mux Control/CTRL_11*%
X237250000Y-112850000D02*
X234050000Y-116050000D01*
X237250000Y-96300000D02*
X237250000Y-112850000D01*
X234050000Y-116050000D02*
X234050000Y-116100000D01*
%TO.N,/Mux Control/CTRL_12*%
X238260000Y-95390000D02*
X238260000Y-113185000D01*
X246750000Y-91060000D02*
X242590000Y-91060000D01*
X238260000Y-113185000D02*
X235375000Y-116070000D01*
X242590000Y-91060000D02*
X238260000Y-95390000D01*
%TO.N,/Mux Control/CTRL_13*%
X247817299Y-91018006D02*
X247050305Y-91785000D01*
X242359974Y-91785000D02*
X238910000Y-95234974D01*
X236665000Y-116070000D02*
X236665000Y-115805305D01*
X247050305Y-91785000D02*
X242359974Y-91785000D01*
X238910000Y-95234974D02*
X238910000Y-113560305D01*
X247817299Y-91017299D02*
X247817299Y-91018006D01*
X236665000Y-115805305D02*
X238910000Y-113560305D01*
%TO.N,/Mux Control/CTRL_14*%
X248780000Y-91050000D02*
X248780000Y-91079903D01*
X239640000Y-114365000D02*
X237935000Y-116070000D01*
X239640000Y-95260000D02*
X239640000Y-114365000D01*
X248780000Y-91079903D02*
X247559903Y-92300000D01*
X242600000Y-92300000D02*
X239640000Y-95260000D01*
X247559903Y-92300000D02*
X242600000Y-92300000D01*
%TO.N,/Mux Control/CTRL_15*%
X247870000Y-100570000D02*
X248840000Y-99600000D01*
X239550000Y-114949974D02*
X239990000Y-114509974D01*
X248840000Y-99600000D02*
X248840000Y-96410000D01*
X240090000Y-100570000D02*
X247870000Y-100570000D01*
X239990000Y-114509974D02*
X239990000Y-100670000D01*
X239550000Y-116090000D02*
X239550000Y-114949974D01*
X239990000Y-100670000D02*
X240090000Y-100570000D01*
%TO.N,/Mux Control/CTRL_8*%
X231624500Y-90525500D02*
X235910000Y-90525500D01*
X230245000Y-116070000D02*
X229190000Y-115015000D01*
X229190000Y-92960000D02*
X231624500Y-90525500D01*
X229190000Y-115015000D02*
X229190000Y-92960000D01*
%TD*%
M02*
