%TF.GenerationSoftware,KiCad,Pcbnew,7.0.9*%
%TF.CreationDate,2024-03-04T14:23:28-07:00*%
%TF.ProjectId,picoAWG,7069636f-4157-4472-9e6b-696361645f70,rev?*%
%TF.SameCoordinates,Original*%
%TF.FileFunction,Soldermask,Top*%
%TF.FilePolarity,Negative*%
%FSLAX46Y46*%
G04 Gerber Fmt 4.6, Leading zero omitted, Abs format (unit mm)*
G04 Created by KiCad (PCBNEW 7.0.9) date 2024-03-04 14:23:28*
%MOMM*%
%LPD*%
G01*
G04 APERTURE LIST*
G04 Aperture macros list*
%AMRoundRect*
0 Rectangle with rounded corners*
0 $1 Rounding radius*
0 $2 $3 $4 $5 $6 $7 $8 $9 X,Y pos of 4 corners*
0 Add a 4 corners polygon primitive as box body*
4,1,4,$2,$3,$4,$5,$6,$7,$8,$9,$2,$3,0*
0 Add four circle primitives for the rounded corners*
1,1,$1+$1,$2,$3*
1,1,$1+$1,$4,$5*
1,1,$1+$1,$6,$7*
1,1,$1+$1,$8,$9*
0 Add four rect primitives between the rounded corners*
20,1,$1+$1,$2,$3,$4,$5,0*
20,1,$1+$1,$4,$5,$6,$7,0*
20,1,$1+$1,$6,$7,$8,$9,0*
20,1,$1+$1,$8,$9,$2,$3,0*%
G04 Aperture macros list end*
%ADD10RoundRect,0.150000X0.150000X-0.825000X0.150000X0.825000X-0.150000X0.825000X-0.150000X-0.825000X0*%
%ADD11RoundRect,0.150000X-0.825000X-0.150000X0.825000X-0.150000X0.825000X0.150000X-0.825000X0.150000X0*%
%ADD12RoundRect,0.200000X-0.200000X-0.275000X0.200000X-0.275000X0.200000X0.275000X-0.200000X0.275000X0*%
%ADD13RoundRect,0.225000X0.250000X-0.225000X0.250000X0.225000X-0.250000X0.225000X-0.250000X-0.225000X0*%
%ADD14RoundRect,0.200000X-0.275000X0.200000X-0.275000X-0.200000X0.275000X-0.200000X0.275000X0.200000X0*%
%ADD15RoundRect,0.200000X0.275000X-0.200000X0.275000X0.200000X-0.275000X0.200000X-0.275000X-0.200000X0*%
%ADD16RoundRect,0.225000X-0.250000X0.225000X-0.250000X-0.225000X0.250000X-0.225000X0.250000X0.225000X0*%
%ADD17R,1.600000X1.600000*%
%ADD18C,1.600000*%
%ADD19RoundRect,0.225000X-0.225000X-0.250000X0.225000X-0.250000X0.225000X0.250000X-0.225000X0.250000X0*%
%ADD20RoundRect,0.218750X-0.256250X0.218750X-0.256250X-0.218750X0.256250X-0.218750X0.256250X0.218750X0*%
%ADD21RoundRect,0.225000X0.225000X0.250000X-0.225000X0.250000X-0.225000X-0.250000X0.225000X-0.250000X0*%
%ADD22C,5.600000*%
%ADD23RoundRect,0.062500X0.375000X0.062500X-0.375000X0.062500X-0.375000X-0.062500X0.375000X-0.062500X0*%
%ADD24RoundRect,0.062500X0.062500X0.375000X-0.062500X0.375000X-0.062500X-0.375000X0.062500X-0.375000X0*%
%ADD25R,3.600000X3.600000*%
%ADD26R,0.355600X1.473200*%
%ADD27R,0.304800X1.066800*%
%ADD28R,1.066800X0.304800*%
%ADD29R,2.260600X2.260600*%
%ADD30RoundRect,0.200000X0.200000X0.800000X-0.200000X0.800000X-0.200000X-0.800000X0.200000X-0.800000X0*%
%ADD31RoundRect,0.218750X0.218750X0.256250X-0.218750X0.256250X-0.218750X-0.256250X0.218750X-0.256250X0*%
%ADD32C,1.270000*%
%ADD33C,2.350000*%
%ADD34R,2.000000X4.500000*%
%ADD35RoundRect,0.200000X0.200000X0.275000X-0.200000X0.275000X-0.200000X-0.275000X0.200000X-0.275000X0*%
%ADD36R,1.700000X1.700000*%
%ADD37O,1.700000X1.700000*%
%ADD38R,0.508000X1.270000*%
%ADD39R,0.600000X1.500000*%
%ADD40R,1.981200X0.558800*%
%ADD41RoundRect,0.150000X0.150000X-0.650000X0.150000X0.650000X-0.150000X0.650000X-0.150000X-0.650000X0*%
%ADD42R,2.000000X4.600000*%
%ADD43O,2.000000X4.200000*%
%ADD44O,4.200000X2.000000*%
%ADD45RoundRect,0.150000X-0.150000X0.875000X-0.150000X-0.875000X0.150000X-0.875000X0.150000X0.875000X0*%
%ADD46R,1.850000X1.850000*%
%ADD47C,1.850000*%
%ADD48R,0.622132X2.469157*%
%ADD49RoundRect,0.218750X0.256250X-0.218750X0.256250X0.218750X-0.256250X0.218750X-0.256250X-0.218750X0*%
%ADD50R,2.000000X1.500000*%
%ADD51R,2.000000X3.800000*%
%ADD52R,0.254000X0.812800*%
%ADD53R,0.812800X0.254000*%
%ADD54R,5.257800X5.257800*%
%ADD55R,0.850000X0.850000*%
%ADD56O,0.850000X0.850000*%
%ADD57RoundRect,0.050000X0.050000X-0.387500X0.050000X0.387500X-0.050000X0.387500X-0.050000X-0.387500X0*%
%ADD58RoundRect,0.050000X0.387500X-0.050000X0.387500X0.050000X-0.387500X0.050000X-0.387500X-0.050000X0*%
%ADD59R,3.200000X3.200000*%
%ADD60RoundRect,0.100000X-0.575000X0.100000X-0.575000X-0.100000X0.575000X-0.100000X0.575000X0.100000X0*%
%ADD61O,1.600000X0.900000*%
%ADD62RoundRect,0.250000X-0.450000X0.550000X-0.450000X-0.550000X0.450000X-0.550000X0.450000X0.550000X0*%
%ADD63RoundRect,0.250000X-0.700000X0.700000X-0.700000X-0.700000X0.700000X-0.700000X0.700000X0.700000X0*%
G04 APERTURE END LIST*
D10*
%TO.C,U19*%
X215470000Y-57751401D03*
X216740000Y-57751401D03*
X218010000Y-57751401D03*
X219280000Y-57751401D03*
X219280000Y-52801401D03*
X218010000Y-52801401D03*
X216740000Y-52801401D03*
X215470000Y-52801401D03*
%TD*%
%TO.C,U20*%
X223470000Y-57751401D03*
X224740000Y-57751401D03*
X226010000Y-57751401D03*
X227280000Y-57751401D03*
X227280000Y-52801401D03*
X226010000Y-52801401D03*
X224740000Y-52801401D03*
X223470000Y-52801401D03*
%TD*%
D11*
%TO.C,U23*%
X238625000Y-58745000D03*
X238625000Y-60015000D03*
X238625000Y-61285000D03*
X238625000Y-62555000D03*
X243575000Y-62555000D03*
X243575000Y-61285000D03*
X243575000Y-60015000D03*
X243575000Y-58745000D03*
%TD*%
D12*
%TO.C,R122*%
X84492200Y-129190000D03*
X86142200Y-129190000D03*
%TD*%
D13*
%TO.C,C121*%
X149455000Y-49505000D03*
X149455000Y-47955000D03*
%TD*%
D14*
%TO.C,R128*%
X98841310Y-114678730D03*
X98841310Y-116328730D03*
%TD*%
D13*
%TO.C,C55*%
X149350000Y-115725000D03*
X149350000Y-114175000D03*
%TD*%
D15*
%TO.C,R66*%
X146252500Y-72348730D03*
X146252500Y-70698730D03*
%TD*%
D16*
%TO.C,C60*%
X136620000Y-106848730D03*
X136620000Y-108398730D03*
%TD*%
D15*
%TO.C,R91*%
X146357500Y-40410000D03*
X146357500Y-38760000D03*
%TD*%
D13*
%TO.C,C122*%
X149457500Y-40360000D03*
X149457500Y-38810000D03*
%TD*%
D15*
%TO.C,R67*%
X146252500Y-75398730D03*
X146252500Y-73748730D03*
%TD*%
%TO.C,R92*%
X146357500Y-43460000D03*
X146357500Y-41810000D03*
%TD*%
D17*
%TO.C,C15*%
X85560000Y-78987621D03*
D18*
X85560000Y-81487621D03*
%TD*%
D15*
%TO.C,R80*%
X175472500Y-68053730D03*
X175472500Y-66403730D03*
%TD*%
D13*
%TO.C,C8*%
X70897500Y-90577500D03*
X70897500Y-89027500D03*
%TD*%
D15*
%TO.C,R73*%
X173962500Y-86878429D03*
X173962500Y-85228429D03*
%TD*%
D19*
%TO.C,C97*%
X166575000Y-68699332D03*
X168125000Y-68699332D03*
%TD*%
D16*
%TO.C,C142*%
X229090000Y-56095000D03*
X229090000Y-57645000D03*
%TD*%
D20*
%TO.C,D1*%
X65200000Y-47512500D03*
X65200000Y-49087500D03*
%TD*%
D21*
%TO.C,C54*%
X140845000Y-108523730D03*
X139295000Y-108523730D03*
%TD*%
D16*
%TO.C,C46*%
X161744401Y-141056270D03*
X161744401Y-142606270D03*
%TD*%
D22*
%TO.C,REF\u002A\u002A*%
X246868690Y-149536270D03*
%TD*%
D23*
%TO.C,U12*%
X134512500Y-77943730D03*
X134512500Y-77443730D03*
X134512500Y-76943730D03*
X134512500Y-76443730D03*
X134512500Y-75943730D03*
X134512500Y-75443730D03*
X134512500Y-74943730D03*
X134512500Y-74443730D03*
D24*
X133825000Y-73756230D03*
X133325000Y-73756230D03*
X132825000Y-73756230D03*
X132325000Y-73756230D03*
X131825000Y-73756230D03*
X131325000Y-73756230D03*
X130825000Y-73756230D03*
X130325000Y-73756230D03*
D23*
X129637500Y-74443730D03*
X129637500Y-74943730D03*
X129637500Y-75443730D03*
X129637500Y-75943730D03*
X129637500Y-76443730D03*
X129637500Y-76943730D03*
X129637500Y-77443730D03*
X129637500Y-77943730D03*
D24*
X130325000Y-78631230D03*
X130825000Y-78631230D03*
X131325000Y-78631230D03*
X131825000Y-78631230D03*
X132325000Y-78631230D03*
X132825000Y-78631230D03*
X133325000Y-78631230D03*
X133825000Y-78631230D03*
D25*
X132075000Y-76193730D03*
%TD*%
D13*
%TO.C,C132*%
X177167500Y-54889699D03*
X177167500Y-53339699D03*
%TD*%
D19*
%TO.C,C43*%
X168244401Y-147131270D03*
X169794401Y-147131270D03*
%TD*%
%TO.C,C172*%
X94666310Y-114753730D03*
X96216310Y-114753730D03*
%TD*%
D15*
%TO.C,R59*%
X146250000Y-66218730D03*
X146250000Y-64568730D03*
%TD*%
D16*
%TO.C,C118*%
X132380000Y-37680000D03*
X132380000Y-39230000D03*
%TD*%
D15*
%TO.C,R53*%
X175512500Y-114975000D03*
X175512500Y-113325000D03*
%TD*%
D19*
%TO.C,C158*%
X96227800Y-111690000D03*
X97777800Y-111690000D03*
%TD*%
%TO.C,C160*%
X98002800Y-125940000D03*
X99552800Y-125940000D03*
%TD*%
D14*
%TO.C,R99*%
X174067500Y-50180000D03*
X174067500Y-51830000D03*
%TD*%
D15*
%TO.C,R62*%
X147800000Y-69293730D03*
X147800000Y-67643730D03*
%TD*%
D26*
%TO.C,U30*%
X228805000Y-94719400D03*
X229455001Y-94719400D03*
X230105000Y-94719400D03*
X230755001Y-94719400D03*
X231404999Y-94719400D03*
X232055001Y-94719400D03*
X232704999Y-94719400D03*
X233354998Y-94719400D03*
X234004999Y-94719400D03*
X234654998Y-94719400D03*
X235304999Y-94719400D03*
X235954998Y-94719400D03*
X236604999Y-94719400D03*
X237254998Y-94719400D03*
X237255000Y-89080600D03*
X236604999Y-89080600D03*
X235955000Y-89080600D03*
X235304999Y-89080600D03*
X234655001Y-89080600D03*
X234004999Y-89080600D03*
X233355001Y-89080600D03*
X232704999Y-89080600D03*
X232055001Y-89080600D03*
X231404999Y-89080600D03*
X230755001Y-89080600D03*
X230105000Y-89080600D03*
X229455001Y-89080600D03*
X228805000Y-89080600D03*
%TD*%
D27*
%TO.C,U17*%
X164230000Y-34670301D03*
X163580002Y-34670301D03*
X162930000Y-34670301D03*
X162280002Y-34670301D03*
D28*
X161489701Y-35460602D03*
X161489701Y-36110600D03*
X161489701Y-36760602D03*
X161489701Y-37410600D03*
D27*
X162280002Y-38200901D03*
X162930000Y-38200901D03*
X163580002Y-38200901D03*
X164230000Y-38200901D03*
D28*
X165020301Y-37410600D03*
X165020301Y-36760602D03*
X165020301Y-36110600D03*
X165020301Y-35460602D03*
D29*
X163255001Y-36435601D03*
%TD*%
D21*
%TO.C,C146*%
X237375000Y-38700000D03*
X235825000Y-38700000D03*
%TD*%
D16*
%TO.C,C74*%
X161744401Y-109850000D03*
X161744401Y-111400000D03*
%TD*%
D15*
%TO.C,R71*%
X147802500Y-75398730D03*
X147802500Y-73748730D03*
%TD*%
%TO.C,R106*%
X219660000Y-61605000D03*
X219660000Y-59955000D03*
%TD*%
%TO.C,R79*%
X175462500Y-71134031D03*
X175462500Y-69484031D03*
%TD*%
D13*
%TO.C,C77*%
X177062500Y-114925000D03*
X177062500Y-113375000D03*
%TD*%
D15*
%TO.C,R121*%
X105335000Y-117765000D03*
X105335000Y-116115000D03*
%TD*%
D14*
%TO.C,R101*%
X174027500Y-34460000D03*
X174027500Y-36110000D03*
%TD*%
D15*
%TO.C,R28*%
X175512500Y-146181270D03*
X175512500Y-144531270D03*
%TD*%
D19*
%TO.C,C162*%
X96252800Y-113190000D03*
X97802800Y-113190000D03*
%TD*%
D23*
%TO.C,U15*%
X134617500Y-46005000D03*
X134617500Y-45505000D03*
X134617500Y-45005000D03*
X134617500Y-44505000D03*
X134617500Y-44005000D03*
X134617500Y-43505000D03*
X134617500Y-43005000D03*
X134617500Y-42505000D03*
D24*
X133930000Y-41817500D03*
X133430000Y-41817500D03*
X132930000Y-41817500D03*
X132430000Y-41817500D03*
X131930000Y-41817500D03*
X131430000Y-41817500D03*
X130930000Y-41817500D03*
X130430000Y-41817500D03*
D23*
X129742500Y-42505000D03*
X129742500Y-43005000D03*
X129742500Y-43505000D03*
X129742500Y-44005000D03*
X129742500Y-44505000D03*
X129742500Y-45005000D03*
X129742500Y-45505000D03*
X129742500Y-46005000D03*
D24*
X130430000Y-46692500D03*
X130930000Y-46692500D03*
X131430000Y-46692500D03*
X131930000Y-46692500D03*
X132430000Y-46692500D03*
X132930000Y-46692500D03*
X133430000Y-46692500D03*
X133930000Y-46692500D03*
D25*
X132180000Y-44255000D03*
%TD*%
D15*
%TO.C,R89*%
X146355000Y-46528730D03*
X146355000Y-44878730D03*
%TD*%
D16*
%TO.C,C180*%
X86961310Y-125058730D03*
X86961310Y-126608730D03*
%TD*%
D13*
%TO.C,C57*%
X149350000Y-100450000D03*
X149350000Y-98900000D03*
%TD*%
D15*
%TO.C,R64*%
X146250000Y-78467460D03*
X146250000Y-76817460D03*
%TD*%
%TO.C,R93*%
X147905000Y-46528730D03*
X147905000Y-44878730D03*
%TD*%
D26*
%TO.C,U31*%
X240315000Y-94689400D03*
X240965001Y-94689400D03*
X241615000Y-94689400D03*
X242265001Y-94689400D03*
X242914999Y-94689400D03*
X243565001Y-94689400D03*
X244214999Y-94689400D03*
X244864998Y-94689400D03*
X245514999Y-94689400D03*
X246164998Y-94689400D03*
X246814999Y-94689400D03*
X247464998Y-94689400D03*
X248114999Y-94689400D03*
X248764998Y-94689400D03*
X248765000Y-89050600D03*
X248114999Y-89050600D03*
X247465000Y-89050600D03*
X246814999Y-89050600D03*
X246165001Y-89050600D03*
X245514999Y-89050600D03*
X244865001Y-89050600D03*
X244214999Y-89050600D03*
X243565001Y-89050600D03*
X242914999Y-89050600D03*
X242265001Y-89050600D03*
X241615000Y-89050600D03*
X240965001Y-89050600D03*
X240315000Y-89050600D03*
%TD*%
D14*
%TO.C,R109*%
X234750000Y-53125000D03*
X234750000Y-54775000D03*
%TD*%
D13*
%TO.C,C123*%
X149457500Y-43410000D03*
X149457500Y-41860000D03*
%TD*%
D30*
%TO.C,SW2*%
X64860000Y-121190000D03*
X60660000Y-121190000D03*
%TD*%
D19*
%TO.C,C127*%
X168349401Y-52780000D03*
X169899401Y-52780000D03*
%TD*%
D15*
%TO.C,R85*%
X147905000Y-52630000D03*
X147905000Y-50980000D03*
%TD*%
D19*
%TO.C,C153*%
X105060000Y-119430000D03*
X106610000Y-119430000D03*
%TD*%
D15*
%TO.C,R32*%
X146250000Y-118825000D03*
X146250000Y-117175000D03*
%TD*%
D31*
%TO.C,L1*%
X89886190Y-75436270D03*
X88311190Y-75436270D03*
%TD*%
D13*
%TO.C,C76*%
X177062500Y-118034699D03*
X177062500Y-116484699D03*
%TD*%
D21*
%TO.C,C26*%
X140845000Y-139730000D03*
X139295000Y-139730000D03*
%TD*%
D16*
%TO.C,C102*%
X161744401Y-78643730D03*
X161744401Y-80193730D03*
%TD*%
D15*
%TO.C,R77*%
X175512500Y-86878429D03*
X175512500Y-85228429D03*
%TD*%
D32*
%TO.C,RV2*%
X195378690Y-33836270D03*
X197918690Y-33836270D03*
X200458690Y-33836270D03*
%TD*%
D19*
%TO.C,C171*%
X237925000Y-127300000D03*
X239475000Y-127300000D03*
%TD*%
D13*
%TO.C,C113*%
X149455000Y-37305000D03*
X149455000Y-35755000D03*
%TD*%
%TO.C,C5*%
X66111310Y-91483730D03*
X66111310Y-89933730D03*
%TD*%
D33*
%TO.C,SW3*%
X65310000Y-42550000D03*
X70010000Y-42550000D03*
X74710000Y-42550000D03*
%TD*%
D15*
%TO.C,R8*%
X146250000Y-131706270D03*
X146250000Y-130056270D03*
%TD*%
D14*
%TO.C,R119*%
X105335000Y-122615000D03*
X105335000Y-124265000D03*
%TD*%
D15*
%TO.C,R2*%
X63310000Y-90685000D03*
X63310000Y-89035000D03*
%TD*%
D26*
%TO.C,U29*%
X217095000Y-94699400D03*
X217745001Y-94699400D03*
X218395000Y-94699400D03*
X219045001Y-94699400D03*
X219694999Y-94699400D03*
X220345001Y-94699400D03*
X220994999Y-94699400D03*
X221644998Y-94699400D03*
X222294999Y-94699400D03*
X222944998Y-94699400D03*
X223594999Y-94699400D03*
X224244998Y-94699400D03*
X224894999Y-94699400D03*
X225544998Y-94699400D03*
X225545000Y-89060600D03*
X224894999Y-89060600D03*
X224245000Y-89060600D03*
X223594999Y-89060600D03*
X222945001Y-89060600D03*
X222294999Y-89060600D03*
X221645001Y-89060600D03*
X220994999Y-89060600D03*
X220345001Y-89060600D03*
X219694999Y-89060600D03*
X219045001Y-89060600D03*
X218395000Y-89060600D03*
X217745001Y-89060600D03*
X217095000Y-89060600D03*
%TD*%
D21*
%TO.C,C166*%
X74477800Y-119190000D03*
X72927800Y-119190000D03*
%TD*%
D14*
%TO.C,R127*%
X75952800Y-120625000D03*
X75952800Y-122275000D03*
%TD*%
D12*
%TO.C,R124*%
X82992200Y-127690000D03*
X84642200Y-127690000D03*
%TD*%
D16*
%TO.C,C32*%
X136620000Y-138055000D03*
X136620000Y-139605000D03*
%TD*%
D15*
%TO.C,R43*%
X147808690Y-109611270D03*
X147808690Y-107961270D03*
%TD*%
%TO.C,R37*%
X147800000Y-100500000D03*
X147800000Y-98850000D03*
%TD*%
%TO.C,R4*%
X60760000Y-109015000D03*
X60760000Y-107365000D03*
%TD*%
D19*
%TO.C,C41*%
X166575000Y-131111872D03*
X168125000Y-131111872D03*
%TD*%
D13*
%TO.C,C135*%
X177117500Y-36060000D03*
X177117500Y-34510000D03*
%TD*%
D21*
%TO.C,C89*%
X127995000Y-78167460D03*
X126445000Y-78167460D03*
%TD*%
D27*
%TO.C,U7*%
X161733677Y-148607670D03*
X162383675Y-148607670D03*
X163033677Y-148607670D03*
X163683675Y-148607670D03*
D28*
X164473976Y-147817369D03*
X164473976Y-147167371D03*
X164473976Y-146517369D03*
X164473976Y-145867371D03*
D27*
X163683675Y-145077070D03*
X163033677Y-145077070D03*
X162383675Y-145077070D03*
X161733677Y-145077070D03*
D28*
X160943376Y-145867371D03*
X160943376Y-146517369D03*
X160943376Y-147167371D03*
X160943376Y-147817369D03*
D29*
X162708676Y-146842370D03*
%TD*%
D23*
%TO.C,U9*%
X134512500Y-109150000D03*
X134512500Y-108650000D03*
X134512500Y-108150000D03*
X134512500Y-107650000D03*
X134512500Y-107150000D03*
X134512500Y-106650000D03*
X134512500Y-106150000D03*
X134512500Y-105650000D03*
D24*
X133825000Y-104962500D03*
X133325000Y-104962500D03*
X132825000Y-104962500D03*
X132325000Y-104962500D03*
X131825000Y-104962500D03*
X131325000Y-104962500D03*
X130825000Y-104962500D03*
X130325000Y-104962500D03*
D23*
X129637500Y-105650000D03*
X129637500Y-106150000D03*
X129637500Y-106650000D03*
X129637500Y-107150000D03*
X129637500Y-107650000D03*
X129637500Y-108150000D03*
X129637500Y-108650000D03*
X129637500Y-109150000D03*
D24*
X130325000Y-109837500D03*
X130825000Y-109837500D03*
X131325000Y-109837500D03*
X131825000Y-109837500D03*
X132325000Y-109837500D03*
X132825000Y-109837500D03*
X133325000Y-109837500D03*
X133825000Y-109837500D03*
D25*
X132075000Y-107400000D03*
%TD*%
D21*
%TO.C,C138*%
X247625000Y-63450000D03*
X246075000Y-63450000D03*
%TD*%
D14*
%TO.C,R26*%
X173922500Y-128811270D03*
X173922500Y-130461270D03*
%TD*%
D16*
%TO.C,C136*%
X218065000Y-59990000D03*
X218065000Y-61540000D03*
%TD*%
D26*
%TO.C,U28*%
X205455000Y-94729400D03*
X206105001Y-94729400D03*
X206755000Y-94729400D03*
X207405001Y-94729400D03*
X208054999Y-94729400D03*
X208705001Y-94729400D03*
X209354999Y-94729400D03*
X210004998Y-94729400D03*
X210654999Y-94729400D03*
X211304998Y-94729400D03*
X211954999Y-94729400D03*
X212604998Y-94729400D03*
X213254999Y-94729400D03*
X213904998Y-94729400D03*
X213905000Y-89090600D03*
X213254999Y-89090600D03*
X212605000Y-89090600D03*
X211954999Y-89090600D03*
X211305001Y-89090600D03*
X210654999Y-89090600D03*
X210005001Y-89090600D03*
X209354999Y-89090600D03*
X208705001Y-89090600D03*
X208054999Y-89090600D03*
X207405001Y-89090600D03*
X206755000Y-89090600D03*
X206105001Y-89090600D03*
X205455000Y-89090600D03*
%TD*%
D13*
%TO.C,C48*%
X177062500Y-149240969D03*
X177062500Y-147690969D03*
%TD*%
D15*
%TO.C,R98*%
X174067500Y-54939699D03*
X174067500Y-53289699D03*
%TD*%
D14*
%TO.C,R114*%
X189718690Y-46311270D03*
X189718690Y-47961270D03*
%TD*%
D27*
%TO.C,U13*%
X161733677Y-86195130D03*
X162383675Y-86195130D03*
X163033677Y-86195130D03*
X163683675Y-86195130D03*
D28*
X164473976Y-85404829D03*
X164473976Y-84754831D03*
X164473976Y-84104829D03*
X164473976Y-83454831D03*
D27*
X163683675Y-82664530D03*
X163033677Y-82664530D03*
X162383675Y-82664530D03*
X161733677Y-82664530D03*
D28*
X160943376Y-83454831D03*
X160943376Y-84104829D03*
X160943376Y-84754831D03*
X160943376Y-85404829D03*
D29*
X162708676Y-84429830D03*
%TD*%
D15*
%TO.C,R36*%
X147800000Y-118825000D03*
X147800000Y-117175000D03*
%TD*%
D16*
%TO.C,C156*%
X83067200Y-130665000D03*
X83067200Y-132215000D03*
%TD*%
D13*
%TO.C,C38*%
X149352500Y-134711270D03*
X149352500Y-133161270D03*
%TD*%
D15*
%TO.C,R123*%
X103585000Y-121015000D03*
X103585000Y-119365000D03*
%TD*%
%TO.C,R86*%
X147905000Y-55680000D03*
X147905000Y-54030000D03*
%TD*%
D16*
%TO.C,C173*%
X100391310Y-117528730D03*
X100391310Y-119078730D03*
%TD*%
D15*
%TO.C,R126*%
X75952800Y-119265000D03*
X75952800Y-117615000D03*
%TD*%
%TO.C,R22*%
X128450000Y-144931270D03*
X128450000Y-143281270D03*
%TD*%
D12*
%TO.C,R131*%
X89510000Y-132990000D03*
X91160000Y-132990000D03*
%TD*%
D15*
%TO.C,R70*%
X147802500Y-72348730D03*
X147802500Y-70698730D03*
%TD*%
%TO.C,R60*%
X147800000Y-84568730D03*
X147800000Y-82918730D03*
%TD*%
%TO.C,R35*%
X147800000Y-115775000D03*
X147800000Y-114125000D03*
%TD*%
%TO.C,R75*%
X173922500Y-71134031D03*
X173922500Y-69484031D03*
%TD*%
D13*
%TO.C,C107*%
X177012500Y-67998730D03*
X177012500Y-66448730D03*
%TD*%
D15*
%TO.C,R19*%
X147800000Y-143906270D03*
X147800000Y-142256270D03*
%TD*%
D21*
%TO.C,C186*%
X83310000Y-122960000D03*
X81760000Y-122960000D03*
%TD*%
D13*
%TO.C,C51*%
X177012500Y-130411270D03*
X177012500Y-128861270D03*
%TD*%
D19*
%TO.C,C99*%
X168244401Y-84718730D03*
X169794401Y-84718730D03*
%TD*%
%TO.C,C1*%
X87485000Y-102940000D03*
X89035000Y-102940000D03*
%TD*%
D15*
%TO.C,R44*%
X147800000Y-112700000D03*
X147800000Y-111050000D03*
%TD*%
%TO.C,R25*%
X173922500Y-133546571D03*
X173922500Y-131896571D03*
%TD*%
%TO.C,R94*%
X147905000Y-49555000D03*
X147905000Y-47905000D03*
%TD*%
D21*
%TO.C,C110*%
X140950000Y-45378730D03*
X139400000Y-45378730D03*
%TD*%
D16*
%TO.C,C179*%
X88461310Y-125058730D03*
X88461310Y-126608730D03*
%TD*%
D15*
%TO.C,R48*%
X173962500Y-118084699D03*
X173962500Y-116434699D03*
%TD*%
D14*
%TO.C,R76*%
X173922500Y-66398730D03*
X173922500Y-68048730D03*
%TD*%
D19*
%TO.C,C21*%
X111943690Y-59936270D03*
X113493690Y-59936270D03*
%TD*%
D16*
%TO.C,C157*%
X86452800Y-109415000D03*
X86452800Y-110965000D03*
%TD*%
D22*
%TO.C,REF\u002A\u002A*%
X62118690Y-149536270D03*
%TD*%
D15*
%TO.C,R125*%
X96527800Y-127829000D03*
X96527800Y-126179000D03*
%TD*%
D19*
%TO.C,C170*%
X224705000Y-127270000D03*
X226255000Y-127270000D03*
%TD*%
D21*
%TO.C,C117*%
X128100000Y-46228730D03*
X126550000Y-46228730D03*
%TD*%
D15*
%TO.C,R33*%
X146250000Y-100500000D03*
X146250000Y-98850000D03*
%TD*%
D13*
%TO.C,C184*%
X91000000Y-112715000D03*
X91000000Y-111165000D03*
%TD*%
D16*
%TO.C,C16*%
X97718690Y-63161270D03*
X97718690Y-64711270D03*
%TD*%
D14*
%TO.C,R5*%
X60760000Y-116365000D03*
X60760000Y-118015000D03*
%TD*%
D15*
%TO.C,R88*%
X147905000Y-34280000D03*
X147905000Y-32630000D03*
%TD*%
D21*
%TO.C,C181*%
X84285000Y-124440000D03*
X82735000Y-124440000D03*
%TD*%
D32*
%TO.C,RV3*%
X206898690Y-55886270D03*
X204358690Y-55886270D03*
X201818690Y-55886270D03*
%TD*%
D20*
%TO.C,D2*%
X65710000Y-67055000D03*
X65710000Y-68630000D03*
%TD*%
D15*
%TO.C,R40*%
X146250000Y-112700000D03*
X146250000Y-111050000D03*
%TD*%
D16*
%TO.C,C137*%
X226080000Y-61330000D03*
X226080000Y-59780000D03*
%TD*%
D15*
%TO.C,R81*%
X146355000Y-52630000D03*
X146355000Y-50980000D03*
%TD*%
D16*
%TO.C,C128*%
X162255000Y-31473730D03*
X162255000Y-33023730D03*
%TD*%
D34*
%TO.C,Y1*%
X94010000Y-102940000D03*
X94010000Y-94440000D03*
%TD*%
D35*
%TO.C,R130*%
X82027800Y-110940000D03*
X80377800Y-110940000D03*
%TD*%
D15*
%TO.C,R47*%
X128450000Y-113725000D03*
X128450000Y-112075000D03*
%TD*%
D13*
%TO.C,C65*%
X149350000Y-112650000D03*
X149350000Y-111100000D03*
%TD*%
D21*
%TO.C,C13*%
X60785000Y-95440000D03*
X59235000Y-95440000D03*
%TD*%
D15*
%TO.C,R27*%
X175512500Y-149290969D03*
X175512500Y-147640969D03*
%TD*%
%TO.C,R20*%
X147802500Y-134761270D03*
X147802500Y-133111270D03*
%TD*%
D13*
%TO.C,C67*%
X149352500Y-106555000D03*
X149352500Y-105005000D03*
%TD*%
D15*
%TO.C,R117*%
X206318690Y-50461270D03*
X206318690Y-48811270D03*
%TD*%
D14*
%TO.C,R1*%
X61760000Y-89025000D03*
X61760000Y-90675000D03*
%TD*%
D13*
%TO.C,C49*%
X177062500Y-146131270D03*
X177062500Y-144581270D03*
%TD*%
D36*
%TO.C,J5*%
X88985000Y-142190000D03*
D37*
X91525000Y-142190000D03*
%TD*%
D15*
%TO.C,R38*%
X147800000Y-97425000D03*
X147800000Y-95775000D03*
%TD*%
D13*
%TO.C,C28*%
X149350000Y-149981270D03*
X149350000Y-148431270D03*
%TD*%
D19*
%TO.C,C24*%
X123345000Y-139530000D03*
X124895000Y-139530000D03*
%TD*%
D13*
%TO.C,C112*%
X149455000Y-55630000D03*
X149455000Y-54080000D03*
%TD*%
D38*
%TO.C,U18*%
X247050001Y-65380800D03*
X246100000Y-65380800D03*
X245149999Y-65380800D03*
X245149999Y-67819200D03*
X246100000Y-67819200D03*
X247050001Y-67819200D03*
%TD*%
D39*
%TO.C,U27*%
X237905000Y-118290000D03*
X236635000Y-118290000D03*
X235365000Y-118290000D03*
X234095000Y-118290000D03*
X232825000Y-118290000D03*
X231555000Y-118290000D03*
X230285000Y-118290000D03*
X229015000Y-118290000D03*
X229015000Y-125390000D03*
X230285000Y-125390000D03*
X231555000Y-125390000D03*
X232825000Y-125390000D03*
X234095000Y-125390000D03*
X235365000Y-125390000D03*
X236635000Y-125390000D03*
X237905000Y-125390000D03*
%TD*%
D19*
%TO.C,C69*%
X166575000Y-99905602D03*
X168125000Y-99905602D03*
%TD*%
D13*
%TO.C,C39*%
X149352500Y-137761270D03*
X149352500Y-136211270D03*
%TD*%
D27*
%TO.C,U14*%
X164125000Y-66609031D03*
X163475002Y-66609031D03*
X162825000Y-66609031D03*
X162175002Y-66609031D03*
D28*
X161384701Y-67399332D03*
X161384701Y-68049330D03*
X161384701Y-68699332D03*
X161384701Y-69349330D03*
D27*
X162175002Y-70139631D03*
X162825000Y-70139631D03*
X163475002Y-70139631D03*
X164125000Y-70139631D03*
D28*
X164915301Y-69349330D03*
X164915301Y-68699332D03*
X164915301Y-68049330D03*
X164915301Y-67399332D03*
D29*
X163150001Y-68374331D03*
%TD*%
D16*
%TO.C,C177*%
X92211310Y-126158730D03*
X92211310Y-127708730D03*
%TD*%
D15*
%TO.C,R52*%
X175512500Y-118084699D03*
X175512500Y-116434699D03*
%TD*%
D13*
%TO.C,C91*%
X132275000Y-82468730D03*
X132275000Y-80918730D03*
%TD*%
D15*
%TO.C,R58*%
X146250000Y-69293730D03*
X146250000Y-67643730D03*
%TD*%
%TO.C,R90*%
X146355000Y-49555000D03*
X146355000Y-47905000D03*
%TD*%
D21*
%TO.C,C187*%
X83285000Y-121440000D03*
X81735000Y-121440000D03*
%TD*%
D15*
%TO.C,R50*%
X173922500Y-102340301D03*
X173922500Y-100690301D03*
%TD*%
D13*
%TO.C,C104*%
X177062500Y-86828429D03*
X177062500Y-85278429D03*
%TD*%
D19*
%TO.C,C31*%
X125000000Y-136206270D03*
X126550000Y-136206270D03*
%TD*%
D15*
%TO.C,R10*%
X147800000Y-146981270D03*
X147800000Y-145331270D03*
%TD*%
%TO.C,R34*%
X146250000Y-97425000D03*
X146250000Y-95775000D03*
%TD*%
D21*
%TO.C,C141*%
X224345000Y-50520000D03*
X222795000Y-50520000D03*
%TD*%
%TO.C,C139*%
X216480000Y-50650000D03*
X214930000Y-50650000D03*
%TD*%
D13*
%TO.C,C94*%
X149352500Y-72298730D03*
X149352500Y-70748730D03*
%TD*%
%TO.C,C106*%
X177012500Y-71084031D03*
X177012500Y-69534031D03*
%TD*%
D15*
%TO.C,R68*%
X147800000Y-78467460D03*
X147800000Y-76817460D03*
%TD*%
%TO.C,R97*%
X128555000Y-50580000D03*
X128555000Y-48930000D03*
%TD*%
D13*
%TO.C,C40*%
X164100000Y-135825000D03*
X164100000Y-134275000D03*
%TD*%
D15*
%TO.C,R83*%
X146355000Y-37355000D03*
X146355000Y-35705000D03*
%TD*%
D27*
%TO.C,U10*%
X161733677Y-117401400D03*
X162383675Y-117401400D03*
X163033677Y-117401400D03*
X163683675Y-117401400D03*
D28*
X164473976Y-116611099D03*
X164473976Y-115961101D03*
X164473976Y-115311099D03*
X164473976Y-114661101D03*
D27*
X163683675Y-113870800D03*
X163033677Y-113870800D03*
X162383675Y-113870800D03*
X161733677Y-113870800D03*
D28*
X160943376Y-114661101D03*
X160943376Y-115311099D03*
X160943376Y-115961101D03*
X160943376Y-116611099D03*
D29*
X162708676Y-115636100D03*
%TD*%
D13*
%TO.C,C95*%
X149352500Y-75348730D03*
X149352500Y-73798730D03*
%TD*%
%TO.C,C124*%
X164205000Y-41473730D03*
X164205000Y-39923730D03*
%TD*%
D15*
%TO.C,R103*%
X175617500Y-51830000D03*
X175617500Y-50180000D03*
%TD*%
D21*
%TO.C,C165*%
X74477800Y-120690000D03*
X72927800Y-120690000D03*
%TD*%
D15*
%TO.C,R21*%
X147802500Y-137811270D03*
X147802500Y-136161270D03*
%TD*%
%TO.C,R55*%
X175472500Y-99260000D03*
X175472500Y-97610000D03*
%TD*%
D13*
%TO.C,C78*%
X177012500Y-102290301D03*
X177012500Y-100740301D03*
%TD*%
D32*
%TO.C,RV1*%
X226065000Y-34226401D03*
X223525000Y-34226401D03*
X220985000Y-34226401D03*
%TD*%
D16*
%TO.C,C19*%
X97968690Y-53661270D03*
X97968690Y-55211270D03*
%TD*%
D13*
%TO.C,C111*%
X149455000Y-52580000D03*
X149455000Y-51030000D03*
%TD*%
D15*
%TO.C,R96*%
X147907500Y-43460000D03*
X147907500Y-41810000D03*
%TD*%
D16*
%TO.C,C151*%
X206268690Y-44986270D03*
X206268690Y-46536270D03*
%TD*%
%TO.C,C175*%
X96561310Y-121258730D03*
X96561310Y-122808730D03*
%TD*%
D13*
%TO.C,C134*%
X177117500Y-39145301D03*
X177117500Y-37595301D03*
%TD*%
D19*
%TO.C,C161*%
X98002800Y-128190000D03*
X99552800Y-128190000D03*
%TD*%
D21*
%TO.C,C4*%
X68785000Y-96190000D03*
X67235000Y-96190000D03*
%TD*%
D19*
%TO.C,C144*%
X220050000Y-47626401D03*
X221600000Y-47626401D03*
%TD*%
%TO.C,C87*%
X125000000Y-73793730D03*
X126550000Y-73793730D03*
%TD*%
%TO.C,C143*%
X224000000Y-47626401D03*
X225550000Y-47626401D03*
%TD*%
D17*
%TO.C,SW4*%
X186900000Y-39942500D03*
D18*
X186900000Y-42442500D03*
X186900000Y-44942500D03*
X183700000Y-39942500D03*
X183700000Y-42442500D03*
X183700000Y-44942500D03*
%TD*%
D19*
%TO.C,C174*%
X93636310Y-124283730D03*
X95186310Y-124283730D03*
%TD*%
D40*
%TO.C,U24*%
X198598823Y-42626270D03*
X198598823Y-43896270D03*
X198598823Y-45166270D03*
X198598823Y-46436270D03*
X198598823Y-47706270D03*
X198598823Y-48976270D03*
X198598823Y-50246270D03*
X203526423Y-50246270D03*
X203526423Y-48976270D03*
X203526423Y-47706270D03*
X203526423Y-46436270D03*
X203526423Y-45166270D03*
X203526423Y-43896270D03*
X203526423Y-42626270D03*
%TD*%
D15*
%TO.C,R72*%
X128450000Y-82518730D03*
X128450000Y-80868730D03*
%TD*%
D14*
%TO.C,R24*%
X173962500Y-144531270D03*
X173962500Y-146181270D03*
%TD*%
D41*
%TO.C,U2*%
X61136310Y-105503730D03*
X62406310Y-105503730D03*
X63676310Y-105503730D03*
X64946310Y-105503730D03*
X64946310Y-98303730D03*
X63676310Y-98303730D03*
X62406310Y-98303730D03*
X61136310Y-98303730D03*
%TD*%
D15*
%TO.C,R78*%
X175512500Y-83768730D03*
X175512500Y-82118730D03*
%TD*%
D42*
%TO.C,J4*%
X68350000Y-54800000D03*
D43*
X62050000Y-54800000D03*
D44*
X65450000Y-59600000D03*
%TD*%
D19*
%TO.C,C108*%
X123450000Y-45178730D03*
X125000000Y-45178730D03*
%TD*%
D21*
%TO.C,C129*%
X158099401Y-36110602D03*
X156549401Y-36110602D03*
%TD*%
D16*
%TO.C,C130*%
X161849401Y-46705000D03*
X161849401Y-48255000D03*
%TD*%
%TO.C,C159*%
X87952800Y-109415000D03*
X87952800Y-110965000D03*
%TD*%
D13*
%TO.C,C35*%
X132275000Y-144881270D03*
X132275000Y-143331270D03*
%TD*%
%TO.C,C70*%
X163700000Y-120818730D03*
X163700000Y-119268730D03*
%TD*%
%TO.C,C63*%
X132275000Y-113675000D03*
X132275000Y-112125000D03*
%TD*%
%TO.C,C85*%
X149350000Y-69243730D03*
X149350000Y-67693730D03*
%TD*%
D22*
%TO.C,REF\u002A\u002A*%
X247118690Y-34536270D03*
%TD*%
D15*
%TO.C,R42*%
X146252500Y-106605000D03*
X146252500Y-104955000D03*
%TD*%
%TO.C,R15*%
X146250000Y-143906270D03*
X146250000Y-142256270D03*
%TD*%
D21*
%TO.C,C131*%
X157797500Y-51780000D03*
X156247500Y-51780000D03*
%TD*%
D45*
%TO.C,U22*%
X244315000Y-41300000D03*
X243045000Y-41300000D03*
X241775000Y-41300000D03*
X240505000Y-41300000D03*
X239235000Y-41300000D03*
X237965000Y-41300000D03*
X236695000Y-41300000D03*
X235425000Y-41300000D03*
X234155000Y-41300000D03*
X232885000Y-41300000D03*
X232885000Y-50600000D03*
X234155000Y-50600000D03*
X235425000Y-50600000D03*
X236695000Y-50600000D03*
X237965000Y-50600000D03*
X239235000Y-50600000D03*
X240505000Y-50600000D03*
X241775000Y-50600000D03*
X243045000Y-50600000D03*
X244315000Y-50600000D03*
%TD*%
D15*
%TO.C,R14*%
X146250000Y-140880000D03*
X146250000Y-139230000D03*
%TD*%
%TO.C,R41*%
X146252500Y-103555000D03*
X146252500Y-101905000D03*
%TD*%
D16*
%TO.C,C100*%
X162150000Y-63412460D03*
X162150000Y-64962460D03*
%TD*%
D15*
%TO.C,R102*%
X175617500Y-54939699D03*
X175617500Y-53289699D03*
%TD*%
%TO.C,R111*%
X236380000Y-60015000D03*
X236380000Y-58365000D03*
%TD*%
%TO.C,R23*%
X173962500Y-149290969D03*
X173962500Y-147640969D03*
%TD*%
D14*
%TO.C,R49*%
X173962500Y-113325000D03*
X173962500Y-114975000D03*
%TD*%
D13*
%TO.C,C83*%
X149350000Y-84518730D03*
X149350000Y-82968730D03*
%TD*%
D46*
%TO.C,PS1*%
X88218690Y-63316270D03*
D47*
X72978690Y-63316270D03*
X88218690Y-70936270D03*
X80598690Y-70936270D03*
X75518690Y-70936270D03*
X72978690Y-70936270D03*
%TD*%
D15*
%TO.C,R84*%
X146355000Y-34280000D03*
X146355000Y-32630000D03*
%TD*%
%TO.C,R54*%
X175462500Y-102340301D03*
X175462500Y-100690301D03*
%TD*%
D21*
%TO.C,C101*%
X157994401Y-68049332D03*
X156444401Y-68049332D03*
%TD*%
D13*
%TO.C,C27*%
X149350000Y-146931270D03*
X149350000Y-145381270D03*
%TD*%
D15*
%TO.C,R30*%
X175472500Y-130466270D03*
X175472500Y-128816270D03*
%TD*%
D21*
%TO.C,C103*%
X157692500Y-83718730D03*
X156142500Y-83718730D03*
%TD*%
D15*
%TO.C,R12*%
X147800000Y-131706270D03*
X147800000Y-130056270D03*
%TD*%
D13*
%TO.C,C66*%
X149352500Y-103505000D03*
X149352500Y-101955000D03*
%TD*%
D19*
%TO.C,C52*%
X123345000Y-108323730D03*
X124895000Y-108323730D03*
%TD*%
D13*
%TO.C,C42*%
X163700000Y-152025000D03*
X163700000Y-150475000D03*
%TD*%
D35*
%TO.C,R115*%
X193643690Y-42286270D03*
X191993690Y-42286270D03*
%TD*%
D48*
%TO.C,U21*%
X223980000Y-40362802D03*
X222710000Y-40362802D03*
X221440000Y-40362802D03*
X220170000Y-40362802D03*
X220170000Y-45190000D03*
X221440000Y-45190000D03*
X222710000Y-45190000D03*
X223980000Y-45190000D03*
%TD*%
D15*
%TO.C,R56*%
X146250000Y-84568730D03*
X146250000Y-82918730D03*
%TD*%
D21*
%TO.C,C188*%
X84186310Y-118733730D03*
X82636310Y-118733730D03*
%TD*%
%TO.C,C33*%
X127995000Y-140580000D03*
X126445000Y-140580000D03*
%TD*%
%TO.C,C81*%
X140845000Y-75467460D03*
X139295000Y-75467460D03*
%TD*%
D49*
%TO.C,F1*%
X68350000Y-49087500D03*
X68350000Y-47512500D03*
%TD*%
D15*
%TO.C,R63*%
X147800000Y-66218730D03*
X147800000Y-64568730D03*
%TD*%
D23*
%TO.C,U6*%
X134512500Y-140356270D03*
X134512500Y-139856270D03*
X134512500Y-139356270D03*
X134512500Y-138856270D03*
X134512500Y-138356270D03*
X134512500Y-137856270D03*
X134512500Y-137356270D03*
X134512500Y-136856270D03*
D24*
X133825000Y-136168770D03*
X133325000Y-136168770D03*
X132825000Y-136168770D03*
X132325000Y-136168770D03*
X131825000Y-136168770D03*
X131325000Y-136168770D03*
X130825000Y-136168770D03*
X130325000Y-136168770D03*
D23*
X129637500Y-136856270D03*
X129637500Y-137356270D03*
X129637500Y-137856270D03*
X129637500Y-138356270D03*
X129637500Y-138856270D03*
X129637500Y-139356270D03*
X129637500Y-139856270D03*
X129637500Y-140356270D03*
D24*
X130325000Y-141043770D03*
X130825000Y-141043770D03*
X131325000Y-141043770D03*
X131825000Y-141043770D03*
X132325000Y-141043770D03*
X132825000Y-141043770D03*
X133325000Y-141043770D03*
X133825000Y-141043770D03*
D25*
X132075000Y-138606270D03*
%TD*%
D15*
%TO.C,R46*%
X147802500Y-106605000D03*
X147802500Y-104955000D03*
%TD*%
D13*
%TO.C,C84*%
X149350000Y-87568730D03*
X149350000Y-86018730D03*
%TD*%
D19*
%TO.C,C145*%
X230925000Y-53050000D03*
X232475000Y-53050000D03*
%TD*%
%TO.C,C80*%
X123345000Y-77117460D03*
X124895000Y-77117460D03*
%TD*%
D12*
%TO.C,R3*%
X87685000Y-94440000D03*
X89335000Y-94440000D03*
%TD*%
D16*
%TO.C,C176*%
X95071310Y-121258730D03*
X95071310Y-122808730D03*
%TD*%
D19*
%TO.C,C169*%
X77075000Y-115200000D03*
X78625000Y-115200000D03*
%TD*%
D13*
%TO.C,C133*%
X177167500Y-51780000D03*
X177167500Y-50230000D03*
%TD*%
D15*
%TO.C,R13*%
X147800000Y-128631270D03*
X147800000Y-126981270D03*
%TD*%
%TO.C,R100*%
X174027500Y-39195301D03*
X174027500Y-37545301D03*
%TD*%
D13*
%TO.C,C149*%
X245740000Y-59965000D03*
X245740000Y-58415000D03*
%TD*%
D21*
%TO.C,C14*%
X68785000Y-94690000D03*
X67235000Y-94690000D03*
%TD*%
D16*
%TO.C,C17*%
X97718690Y-71911270D03*
X97718690Y-73461270D03*
%TD*%
D12*
%TO.C,R113*%
X191993690Y-40686270D03*
X193643690Y-40686270D03*
%TD*%
D21*
%TO.C,C75*%
X157692500Y-114925000D03*
X156142500Y-114925000D03*
%TD*%
D15*
%TO.C,R31*%
X146250000Y-115775000D03*
X146250000Y-114125000D03*
%TD*%
D50*
%TO.C,U4*%
X101718690Y-66586270D03*
X101718690Y-68886270D03*
D51*
X108018690Y-68886270D03*
D50*
X101718690Y-71186270D03*
%TD*%
D13*
%TO.C,C12*%
X72441310Y-90578730D03*
X72441310Y-89028730D03*
%TD*%
%TO.C,C29*%
X149350000Y-131656270D03*
X149350000Y-130106270D03*
%TD*%
D22*
%TO.C,REF\u002A\u002A*%
X62118690Y-34536270D03*
%TD*%
D35*
%TO.C,R107*%
X227605000Y-59780000D03*
X229255000Y-59780000D03*
%TD*%
D16*
%TO.C,C18*%
X89800000Y-78425000D03*
X89800000Y-79975000D03*
%TD*%
D27*
%TO.C,U16*%
X161838677Y-54256400D03*
X162488675Y-54256400D03*
X163138677Y-54256400D03*
X163788675Y-54256400D03*
D28*
X164578976Y-53466099D03*
X164578976Y-52816101D03*
X164578976Y-52166099D03*
X164578976Y-51516101D03*
D27*
X163788675Y-50725800D03*
X163138677Y-50725800D03*
X162488675Y-50725800D03*
X161838677Y-50725800D03*
D28*
X161048376Y-51516101D03*
X161048376Y-52166099D03*
X161048376Y-52816101D03*
X161048376Y-53466099D03*
D29*
X162813676Y-52491100D03*
%TD*%
D30*
%TO.C,SW1*%
X64860000Y-111940000D03*
X60660000Y-111940000D03*
%TD*%
D15*
%TO.C,R11*%
X147800000Y-150031270D03*
X147800000Y-148381270D03*
%TD*%
D27*
%TO.C,U8*%
X164125000Y-129021571D03*
X163475002Y-129021571D03*
X162825000Y-129021571D03*
X162175002Y-129021571D03*
D28*
X161384701Y-129811872D03*
X161384701Y-130461870D03*
X161384701Y-131111872D03*
X161384701Y-131761870D03*
D27*
X162175002Y-132552171D03*
X162825000Y-132552171D03*
X163475002Y-132552171D03*
X164125000Y-132552171D03*
D28*
X164915301Y-131761870D03*
X164915301Y-131111872D03*
X164915301Y-130461870D03*
X164915301Y-129811872D03*
D29*
X163150001Y-130786871D03*
%TD*%
D15*
%TO.C,R39*%
X146258690Y-109611270D03*
X146258690Y-107961270D03*
%TD*%
D16*
%TO.C,C178*%
X90661310Y-125058730D03*
X90661310Y-126608730D03*
%TD*%
D27*
%TO.C,U11*%
X164125000Y-97815301D03*
X163475002Y-97815301D03*
X162825000Y-97815301D03*
X162175002Y-97815301D03*
D28*
X161384701Y-98605602D03*
X161384701Y-99255600D03*
X161384701Y-99905602D03*
X161384701Y-100555600D03*
D27*
X162175002Y-101345901D03*
X162825000Y-101345901D03*
X163475002Y-101345901D03*
X164125000Y-101345901D03*
D28*
X164915301Y-100555600D03*
X164915301Y-99905602D03*
X164915301Y-99255600D03*
X164915301Y-98605602D03*
D29*
X163150001Y-99580601D03*
%TD*%
D35*
%TO.C,R120*%
X83142200Y-129190000D03*
X81492200Y-129190000D03*
%TD*%
D13*
%TO.C,C37*%
X149350000Y-143856270D03*
X149350000Y-142306270D03*
%TD*%
D14*
%TO.C,R110*%
X234750000Y-59325000D03*
X234750000Y-60975000D03*
%TD*%
D12*
%TO.C,R116*%
X191843690Y-51936270D03*
X193493690Y-51936270D03*
%TD*%
D13*
%TO.C,C150*%
X236610000Y-64165000D03*
X236610000Y-62615000D03*
%TD*%
%TO.C,C68*%
X164100000Y-104618730D03*
X164100000Y-103068730D03*
%TD*%
D15*
%TO.C,R9*%
X146250000Y-128631270D03*
X146250000Y-126981270D03*
%TD*%
D19*
%TO.C,C115*%
X125105000Y-41855000D03*
X126655000Y-41855000D03*
%TD*%
D13*
%TO.C,C58*%
X149350000Y-97375000D03*
X149350000Y-95825000D03*
%TD*%
D15*
%TO.C,R104*%
X175567500Y-39195301D03*
X175567500Y-37545301D03*
%TD*%
D16*
%TO.C,C2*%
X87510000Y-96665000D03*
X87510000Y-98215000D03*
%TD*%
%TO.C,C62*%
X132275000Y-100825000D03*
X132275000Y-102375000D03*
%TD*%
D13*
%TO.C,C30*%
X149350000Y-128581270D03*
X149350000Y-127031270D03*
%TD*%
D52*
%TO.C,U25*%
X92413600Y-116036400D03*
X91913601Y-116036400D03*
X91413599Y-116036400D03*
X90913600Y-116036400D03*
X90413601Y-116036400D03*
X89913600Y-116036400D03*
X89413600Y-116036400D03*
X88913599Y-116036400D03*
X88413600Y-116036400D03*
X87913601Y-116036400D03*
X87413599Y-116036400D03*
X86913600Y-116036400D03*
D53*
X86260000Y-116690000D03*
X86260000Y-117189999D03*
X86260000Y-117690001D03*
X86260000Y-118190000D03*
X86260000Y-118689999D03*
X86260000Y-119190000D03*
X86260000Y-119690000D03*
X86260000Y-120190001D03*
X86260000Y-120690000D03*
X86260000Y-121189999D03*
X86260000Y-121690001D03*
X86260000Y-122190000D03*
D52*
X86913600Y-122843600D03*
X87413599Y-122843600D03*
X87913601Y-122843600D03*
X88413600Y-122843600D03*
X88913599Y-122843600D03*
X89413600Y-122843600D03*
X89913600Y-122843600D03*
X90413601Y-122843600D03*
X90913600Y-122843600D03*
X91413599Y-122843600D03*
X91913601Y-122843600D03*
X92413600Y-122843600D03*
D53*
X93067200Y-122190000D03*
X93067200Y-121690001D03*
X93067200Y-121189999D03*
X93067200Y-120690000D03*
X93067200Y-120190001D03*
X93067200Y-119690000D03*
X93067200Y-119190000D03*
X93067200Y-118689999D03*
X93067200Y-118190000D03*
X93067200Y-117690001D03*
X93067200Y-117189999D03*
X93067200Y-116690000D03*
D54*
X89663600Y-119440000D03*
%TD*%
D21*
%TO.C,C53*%
X140845000Y-106673730D03*
X139295000Y-106673730D03*
%TD*%
D13*
%TO.C,C50*%
X177012500Y-133496571D03*
X177012500Y-131946571D03*
%TD*%
D15*
%TO.C,R45*%
X147802500Y-103555000D03*
X147802500Y-101905000D03*
%TD*%
%TO.C,R105*%
X175577500Y-36115000D03*
X175577500Y-34465000D03*
%TD*%
D39*
%TO.C,U26*%
X224705000Y-118270000D03*
X223435000Y-118270000D03*
X222165000Y-118270000D03*
X220895000Y-118270000D03*
X219625000Y-118270000D03*
X218355000Y-118270000D03*
X217085000Y-118270000D03*
X215815000Y-118270000D03*
X215815000Y-125370000D03*
X217085000Y-125370000D03*
X218355000Y-125370000D03*
X219625000Y-125370000D03*
X220895000Y-125370000D03*
X222165000Y-125370000D03*
X223435000Y-125370000D03*
X224705000Y-125370000D03*
%TD*%
D19*
%TO.C,C163*%
X77075000Y-113650000D03*
X78625000Y-113650000D03*
%TD*%
D13*
%TO.C,C79*%
X177012500Y-99205000D03*
X177012500Y-97655000D03*
%TD*%
D19*
%TO.C,C125*%
X166680000Y-36760602D03*
X168230000Y-36760602D03*
%TD*%
D15*
%TO.C,R6*%
X146250000Y-146981270D03*
X146250000Y-145331270D03*
%TD*%
%TO.C,R65*%
X146250000Y-81493730D03*
X146250000Y-79843730D03*
%TD*%
D16*
%TO.C,C44*%
X162150000Y-125825000D03*
X162150000Y-127375000D03*
%TD*%
D19*
%TO.C,C22*%
X77323690Y-76186270D03*
X78873690Y-76186270D03*
%TD*%
D16*
%TO.C,C168*%
X89510000Y-134690000D03*
X89510000Y-136240000D03*
%TD*%
D19*
%TO.C,C147*%
X233200000Y-56300000D03*
X234750000Y-56300000D03*
%TD*%
D21*
%TO.C,C45*%
X157994401Y-130461872D03*
X156444401Y-130461872D03*
%TD*%
D16*
%TO.C,C167*%
X91260000Y-134715000D03*
X91260000Y-136265000D03*
%TD*%
D15*
%TO.C,R17*%
X146252500Y-137811270D03*
X146252500Y-136161270D03*
%TD*%
%TO.C,R82*%
X146355000Y-55680000D03*
X146355000Y-54030000D03*
%TD*%
D14*
%TO.C,R51*%
X173922500Y-97605000D03*
X173922500Y-99255000D03*
%TD*%
D19*
%TO.C,C148*%
X233200000Y-57850000D03*
X234750000Y-57850000D03*
%TD*%
D13*
%TO.C,C6*%
X75611310Y-89958730D03*
X75611310Y-88408730D03*
%TD*%
D21*
%TO.C,C109*%
X140950000Y-43528730D03*
X139400000Y-43528730D03*
%TD*%
D16*
%TO.C,C88*%
X136620000Y-75642460D03*
X136620000Y-77192460D03*
%TD*%
D13*
%TO.C,C92*%
X149350000Y-78417460D03*
X149350000Y-76867460D03*
%TD*%
D55*
%TO.C,J1*%
X86100000Y-87800000D03*
D56*
X86100000Y-88800000D03*
%TD*%
D16*
%TO.C,C11*%
X71541310Y-101128730D03*
X71541310Y-102678730D03*
%TD*%
D50*
%TO.C,U5*%
X101568690Y-48136270D03*
X101568690Y-50436270D03*
D51*
X107868690Y-50436270D03*
D50*
X101568690Y-52736270D03*
%TD*%
D13*
%TO.C,C105*%
X177062500Y-83718730D03*
X177062500Y-82168730D03*
%TD*%
%TO.C,C56*%
X149350000Y-118775000D03*
X149350000Y-117225000D03*
%TD*%
D14*
%TO.C,R74*%
X173962500Y-82118730D03*
X173962500Y-83768730D03*
%TD*%
D13*
%TO.C,C126*%
X163805000Y-57673730D03*
X163805000Y-56123730D03*
%TD*%
D57*
%TO.C,U1*%
X72460000Y-99427500D03*
X72860000Y-99427500D03*
X73260000Y-99427500D03*
X73660000Y-99427500D03*
X74060000Y-99427500D03*
X74460000Y-99427500D03*
X74860000Y-99427500D03*
X75260000Y-99427500D03*
X75660000Y-99427500D03*
X76060000Y-99427500D03*
X76460000Y-99427500D03*
X76860000Y-99427500D03*
X77260000Y-99427500D03*
X77660000Y-99427500D03*
D58*
X78497500Y-98590000D03*
X78497500Y-98190000D03*
X78497500Y-97790000D03*
X78497500Y-97390000D03*
X78497500Y-96990000D03*
X78497500Y-96590000D03*
X78497500Y-96190000D03*
X78497500Y-95790000D03*
X78497500Y-95390000D03*
X78497500Y-94990000D03*
X78497500Y-94590000D03*
X78497500Y-94190000D03*
X78497500Y-93790000D03*
X78497500Y-93390000D03*
D57*
X77660000Y-92552500D03*
X77260000Y-92552500D03*
X76860000Y-92552500D03*
X76460000Y-92552500D03*
X76060000Y-92552500D03*
X75660000Y-92552500D03*
X75260000Y-92552500D03*
X74860000Y-92552500D03*
X74460000Y-92552500D03*
X74060000Y-92552500D03*
X73660000Y-92552500D03*
X73260000Y-92552500D03*
X72860000Y-92552500D03*
X72460000Y-92552500D03*
D58*
X71622500Y-93390000D03*
X71622500Y-93790000D03*
X71622500Y-94190000D03*
X71622500Y-94590000D03*
X71622500Y-94990000D03*
X71622500Y-95390000D03*
X71622500Y-95790000D03*
X71622500Y-96190000D03*
X71622500Y-96590000D03*
X71622500Y-96990000D03*
X71622500Y-97390000D03*
X71622500Y-97790000D03*
X71622500Y-98190000D03*
X71622500Y-98590000D03*
D59*
X75060000Y-95990000D03*
%TD*%
D13*
%TO.C,C183*%
X89510000Y-112715000D03*
X89510000Y-111165000D03*
%TD*%
D15*
%TO.C,R95*%
X147907500Y-40410000D03*
X147907500Y-38760000D03*
%TD*%
D19*
%TO.C,C164*%
X80427800Y-112440000D03*
X81977800Y-112440000D03*
%TD*%
D15*
%TO.C,R7*%
X146250000Y-150031270D03*
X146250000Y-148381270D03*
%TD*%
D13*
%TO.C,C86*%
X149350000Y-66168730D03*
X149350000Y-64618730D03*
%TD*%
D16*
%TO.C,C72*%
X162150000Y-94618730D03*
X162150000Y-96168730D03*
%TD*%
D21*
%TO.C,C47*%
X157692500Y-146131270D03*
X156142500Y-146131270D03*
%TD*%
D19*
%TO.C,C59*%
X125000000Y-105000000D03*
X126550000Y-105000000D03*
%TD*%
D15*
%TO.C,R16*%
X146252500Y-134761270D03*
X146252500Y-133111270D03*
%TD*%
D14*
%TO.C,R129*%
X77452800Y-119115000D03*
X77452800Y-120765000D03*
%TD*%
D15*
%TO.C,R61*%
X147800000Y-87618730D03*
X147800000Y-85968730D03*
%TD*%
D21*
%TO.C,C182*%
X86586310Y-113183730D03*
X85036310Y-113183730D03*
%TD*%
D13*
%TO.C,C64*%
X149358690Y-109561270D03*
X149358690Y-108011270D03*
%TD*%
D19*
%TO.C,C9*%
X81866310Y-95503730D03*
X83416310Y-95503730D03*
%TD*%
D15*
%TO.C,R57*%
X146250000Y-87618730D03*
X146250000Y-85968730D03*
%TD*%
D19*
%TO.C,C71*%
X168244401Y-115925000D03*
X169794401Y-115925000D03*
%TD*%
%TO.C,C189*%
X94816310Y-116603730D03*
X96366310Y-116603730D03*
%TD*%
D13*
%TO.C,C185*%
X92510000Y-112715000D03*
X92510000Y-111165000D03*
%TD*%
D21*
%TO.C,C82*%
X140845000Y-77317460D03*
X139295000Y-77317460D03*
%TD*%
D13*
%TO.C,C96*%
X164100000Y-73412460D03*
X164100000Y-71862460D03*
%TD*%
D15*
%TO.C,R69*%
X147800000Y-81493730D03*
X147800000Y-79843730D03*
%TD*%
D21*
%TO.C,C7*%
X69386310Y-91483730D03*
X67836310Y-91483730D03*
%TD*%
D13*
%TO.C,C114*%
X149455000Y-34230000D03*
X149455000Y-32680000D03*
%TD*%
%TO.C,C120*%
X149455000Y-46478730D03*
X149455000Y-44928730D03*
%TD*%
D50*
%TO.C,U3*%
X101718690Y-57636270D03*
X101718690Y-59936270D03*
D51*
X108018690Y-59936270D03*
D50*
X101718690Y-62236270D03*
%TD*%
D13*
%TO.C,C98*%
X163700000Y-89612460D03*
X163700000Y-88062460D03*
%TD*%
D19*
%TO.C,C154*%
X105060000Y-120940000D03*
X106610000Y-120940000D03*
%TD*%
D16*
%TO.C,C140*%
X220940000Y-56805000D03*
X220940000Y-58355000D03*
%TD*%
D15*
%TO.C,R18*%
X147800000Y-140880000D03*
X147800000Y-139230000D03*
%TD*%
D13*
%TO.C,C119*%
X132380000Y-50530000D03*
X132380000Y-48980000D03*
%TD*%
D16*
%TO.C,C152*%
X195050000Y-46475000D03*
X195050000Y-48025000D03*
%TD*%
D19*
%TO.C,C23*%
X111918690Y-50436270D03*
X113468690Y-50436270D03*
%TD*%
%TO.C,C3*%
X84666310Y-93953730D03*
X86216310Y-93953730D03*
%TD*%
D15*
%TO.C,R87*%
X147905000Y-37355000D03*
X147905000Y-35705000D03*
%TD*%
%TO.C,R29*%
X175462500Y-133546571D03*
X175462500Y-131896571D03*
%TD*%
D21*
%TO.C,C61*%
X127995000Y-109373730D03*
X126445000Y-109373730D03*
%TD*%
%TO.C,C73*%
X157994401Y-99255602D03*
X156444401Y-99255602D03*
%TD*%
D16*
%TO.C,C10*%
X76041310Y-102128730D03*
X76041310Y-103678730D03*
%TD*%
%TO.C,C34*%
X132275000Y-132031270D03*
X132275000Y-133581270D03*
%TD*%
%TO.C,C90*%
X132275000Y-69618730D03*
X132275000Y-71168730D03*
%TD*%
D13*
%TO.C,C93*%
X149350000Y-81443730D03*
X149350000Y-79893730D03*
%TD*%
D16*
%TO.C,C155*%
X84567200Y-130665000D03*
X84567200Y-132215000D03*
%TD*%
D13*
%TO.C,C36*%
X149350000Y-140830000D03*
X149350000Y-139280000D03*
%TD*%
D21*
%TO.C,C25*%
X140845000Y-137880000D03*
X139295000Y-137880000D03*
%TD*%
D19*
%TO.C,C20*%
X111943690Y-68936270D03*
X113493690Y-68936270D03*
%TD*%
D60*
%TO.C,J2*%
X58795000Y-80470000D03*
X58795000Y-81120000D03*
X58795000Y-81770000D03*
X58795000Y-82420000D03*
X58795000Y-83070000D03*
D61*
X56120000Y-78470000D03*
D62*
X58570000Y-78570000D03*
D63*
X56120000Y-80570000D03*
X56120000Y-82970000D03*
D62*
X58570000Y-84970000D03*
D61*
X56120000Y-85070000D03*
%TD*%
D16*
%TO.C,C116*%
X136725000Y-43703730D03*
X136725000Y-45253730D03*
%TD*%
D36*
%TO.C,J3*%
X201118690Y-72966270D03*
D37*
X198578690Y-72966270D03*
X201118690Y-75506270D03*
X198578690Y-75506270D03*
X201118690Y-78046270D03*
X198578690Y-78046270D03*
X201118690Y-80586270D03*
X198578690Y-80586270D03*
X201118690Y-83126270D03*
X198578690Y-83126270D03*
X201118690Y-85666270D03*
X198578690Y-85666270D03*
X201118690Y-88206270D03*
X198578690Y-88206270D03*
X201118690Y-90746270D03*
X198578690Y-90746270D03*
X201118690Y-93286270D03*
X198578690Y-93286270D03*
X201118690Y-95826270D03*
X198578690Y-95826270D03*
X201118690Y-98366270D03*
X198578690Y-98366270D03*
X201118690Y-100906270D03*
X198578690Y-100906270D03*
X201118690Y-103446270D03*
X198578690Y-103446270D03*
X201118690Y-105986270D03*
X198578690Y-105986270D03*
X201118690Y-108526270D03*
X198578690Y-108526270D03*
X201118690Y-111066270D03*
X198578690Y-111066270D03*
%TD*%
M02*
