M48
; DRILL file {KiCad 7.0.9} date Mon Mar  4 14:23:29 2024
; FORMAT={-:-/ absolute / inch / decimal}
; #@! TF.CreationDate,2024-03-04T14:23:29-07:00
; #@! TF.GenerationSoftware,Kicad,Pcbnew,7.0.9
; #@! TF.FileFunction,Plated,1,4,PTH
FMAT,2
INCH
; #@! TA.AperFunction,Plated,PTH,ViaDrill
T1C0.0079
; #@! TA.AperFunction,Plated,PTH,ComponentDrill
T2C0.0197
; #@! TA.AperFunction,Plated,PTH,ComponentDrill
T3C0.0300
; #@! TA.AperFunction,Plated,PTH,ComponentDrill
T4C0.0315
; #@! TA.AperFunction,Plated,PTH,ComponentDrill
T5C0.0335
; #@! TA.AperFunction,Plated,PTH,ComponentDrill
T6C0.0394
; #@! TA.AperFunction,Plated,PTH,ComponentDrill
T7C0.0728
; #@! TA.AperFunction,Plated,PTH,ComponentDrill
T8C0.1260
%
G90
G05
T1
X2.3107Y-3.8348
X2.3914Y-4.5265
X2.3975Y-3.3156
X2.4409Y-4.6457
X2.4623Y-3.7698
X2.5489Y-3.6017
X2.5489Y-3.5395
X2.5902Y-3.7305
X2.5902Y-3.7757
X2.5922Y-3.6852
X2.6276Y-4.1557
X2.6276Y-4.7718
X2.6375Y-4.4057
X2.6657Y-3.8385
X2.6768Y-3.5474
X2.7319Y-3.5435
X2.7378Y-3.5021
X2.7634Y-3.9814
X2.7634Y-4.0425
X2.8504Y-2.8917
X2.854Y-3.4568
X2.9012Y-3.6005
X2.9038Y-3.5628
X2.9315Y-4.8104
X2.9335Y-4.6332
X2.9469Y-4.0208
X2.9469Y-4.0818
X2.9547Y-3.7776
X2.9626Y-3.5925
X2.966Y-3.9646
X3.0252Y-3.4807
X3.0256Y-3.5768
X3.0276Y-4.4035
X3.0292Y-3.5159
X3.0423Y-3.9764
X3.0669Y-3.5453
X3.1024Y-4.4252
X3.1083Y-3.5217
X3.1299Y-4.002
X3.1299Y-4.3071
X3.1365Y-3.5454
X3.1422Y-3.591
X3.1441Y-5.086
X3.1988Y-3.5799
X3.1993Y-4.7001
X3.1993Y-4.6575
X3.2051Y-4.5502
X3.213Y-4.9423
X3.2205Y-4.0925
X3.2268Y-4.3202
X3.2343Y-3.6624
X3.2539Y-4.627
X3.2559Y-3.9193
X3.2559Y-3.9567
X3.2559Y-4.0
X3.2559Y-4.0453
X3.2618Y-3.5846
X3.2797Y-4.9559
X3.2831Y-3.8082
X3.2925Y-4.4514
X3.3082Y-3.8948
X3.3378Y-3.7989
X3.3402Y-4.3112
X3.3435Y-4.3937
X3.3508Y-4.8458
X3.3638Y-3.7561
X3.3661Y-4.5354
X3.3681Y-4.9744
X3.372Y-4.1083
X3.372Y-4.1713
X3.4347Y-3.9155
X3.4443Y-4.1101
X3.4591Y-5.0387
X3.4611Y-5.0938
X3.4744Y-4.6555
X3.4744Y-4.7638
X3.476Y-3.389
X3.5162Y-4.3025
X3.5299Y-4.7024
X3.5532Y-3.1974
X3.5536Y-4.3222
X3.5752Y-5.0427
X3.5827Y-4.6555
X3.5827Y-4.7638
X3.5984Y-2.8957
X3.6028Y-4.3242
X3.622Y-2.9291
X3.628Y-2.4764
X3.6441Y-5.0801
X3.6496Y-2.9606
X3.654Y-4.3242
X3.6668Y-4.5121
X3.685Y-5.0148
X3.6978Y-4.438
X3.7411Y-4.9392
X3.7933Y-2.1791
X3.8048Y-4.9037
X3.8366Y-2.7756
X3.841Y-4.5631
X3.8422Y-4.508
X3.8425Y-2.4291
X3.8465Y-2.6024
X3.8465Y-2.9488
X3.8548Y-4.8379
X3.8819Y-2.7146
X3.8858Y-4.7756
X3.8917Y-1.8937
X3.9016Y-1.9843
X3.902Y-4.4541
X3.9035Y-2.3602
X3.904Y-4.399
X3.9252Y-2.624
X3.9291Y-2.2815
X3.9587Y-4.4803
X4.0095Y-4.6891
X4.0192Y-4.6137
X4.0945Y-5.9783
X4.1457Y-5.9803
X4.1473Y-4.5198
X4.1481Y-4.9482
X4.2449Y-3.3862
X4.3346Y-1.9331
X4.3346Y-2.0394
X4.3346Y-2.2205
X4.3504Y-2.2776
X4.3799Y-2.2323
X4.4203Y-2.7825
X4.5256Y-2.7165
X4.5354Y-1.9941
X4.5354Y-2.3583
X4.7323Y-5.4429
X4.7402Y-4.2185
X4.7756Y-5.5079
X4.7835Y-5.5669
X4.7933Y-2.9665
X4.8307Y-1.7146
X4.8465Y-3.0861
X4.8465Y-4.3147
X4.8465Y-5.5433
X4.8506Y-1.8287
X4.8898Y-2.1742
X4.9232Y-4.2145
X4.9299Y-2.853
X4.9299Y-4.0816
X4.9299Y-5.3102
X4.9341Y-1.5956
X4.9469Y-2.1358
X4.9587Y-5.4429
X4.9677Y-3.1298
X4.9677Y-5.587
X4.9719Y-1.8724
X4.9783Y-2.996
X4.9791Y-4.3572
X4.9831Y-4.186
X4.9961Y-1.7382
X5.0472Y-2.9527
X5.0472Y-5.4098
X5.0514Y-1.6952
X5.0571Y-3.2981
X5.0571Y-4.5267
X5.0571Y-5.7553
X5.0612Y-2.0407
X5.0664Y-3.5861
X5.0669Y-3.5453
X5.0679Y-3.626
X5.0689Y-3.6673
X5.0906Y-5.8878
X5.124Y-2.7968
X5.124Y-4.0253
X5.124Y-5.2539
X5.126Y-3.1432
X5.126Y-4.3718
X5.126Y-5.6004
X5.1281Y-1.5393
X5.1301Y-1.8858
X5.1575Y-3.0315
X5.1594Y-2.9626
X5.1594Y-5.4173
X5.1614Y-4.1909
X5.1614Y-5.4941
X5.1634Y-4.2677
X5.1654Y-1.7047
X5.1673Y-1.7815
X5.2362Y-2.9646
X5.2362Y-3.0315
X5.2362Y-5.4193
X5.2382Y-4.1929
X5.2402Y-5.4961
X5.2421Y-1.7067
X5.2421Y-4.2697
X5.2461Y-1.7835
X5.25Y-2.6865
X5.25Y-3.9151
X5.25Y-5.1437
X5.2541Y-1.4291
X5.2608Y-5.6378
X5.2626Y-3.2468
X5.2626Y-4.4754
X5.2626Y-5.704
X5.2667Y-1.9894
X5.2667Y-3.1878
X5.2687Y-2.7982
X5.2698Y-1.5401
X5.2707Y-4.4124
X5.2718Y-1.9289
X5.2746Y-5.253
X5.278Y-4.015
X5.3488Y-5.3754
X5.3701Y-4.3445
X5.372Y-5.5731
X5.376Y-1.8585
X5.378Y-3.1159
X5.3799Y-1.6368
X5.3839Y-2.8957
X5.3957Y-2.3327
X5.3976Y-2.1929
X5.4035Y-5.3563
X5.4248Y-3.1159
X5.4299Y-3.0519
X5.4299Y-4.2805
X5.4299Y-5.5091
X5.4339Y-2.9692
X5.4339Y-4.1978
X5.4339Y-5.4264
X5.4341Y-1.7944
X5.435Y-4.124
X5.438Y-1.7118
X5.439Y-2.1929
X5.439Y-2.3031
X5.4429Y-2.8701
X5.4567Y-5.3465
X5.4626Y-4.3445
X5.4646Y-5.5709
X5.4665Y-3.1159
X5.4705Y-1.8585
X5.4764Y-2.3858
X5.4823Y-1.622
X5.4823Y-2.1929
X5.4823Y-4.1122
X5.4941Y-2.9213
X5.4951Y-4.1516
X5.4961Y-1.6614
X5.5138Y-4.3366
X5.5256Y-5.563
X5.5591Y-2.1949
X5.5591Y-2.3169
X5.563Y-1.8465
X5.5965Y-2.1929
X5.5965Y-2.3169
X5.5965Y-3.0448
X5.5965Y-4.2734
X5.5965Y-5.502
X5.5984Y-2.9719
X5.5984Y-4.2005
X5.5984Y-5.4291
X5.6006Y-1.7874
X5.6026Y-1.7145
X5.6815Y-6.0295
X5.7323Y-6.0291
X5.787Y-6.0307
X5.928Y-3.7138
X5.9291Y-2.905
X5.9291Y-4.1336
X5.9291Y-5.3622
X5.9333Y-1.6476
X5.9377Y-4.9365
X5.939Y-3.0979
X5.939Y-4.3265
X5.939Y-5.5551
X5.9413Y-2.4772
X5.9419Y-1.2224
X5.9429Y-3.4314
X5.9429Y-4.66
X5.9429Y-5.8886
X5.9431Y-1.8405
X5.947Y-2.174
X6.0898Y-3.286
X6.0898Y-4.5146
X6.0898Y-5.7432
X6.0939Y-2.0285
X6.0972Y-2.7194
X6.0972Y-3.948
X6.0972Y-5.1766
X6.1013Y-1.462
X6.1117Y-2.547
X6.1117Y-3.7756
X6.1117Y-5.0042
X6.1137Y-2.6179
X6.1137Y-3.8465
X6.1137Y-5.0751
X6.1158Y-1.2896
X6.1178Y-1.3604
X6.1811Y-1.2992
X6.1811Y-1.4961
X6.1811Y-1.9685
X6.2087Y-3.2362
X6.2087Y-5.6791
X6.2205Y-4.4567
X6.2264Y-2.6181
X6.2264Y-3.8484
X6.2382Y-5.0728
X6.2618Y-3.3282
X6.2618Y-4.5568
X6.2618Y-5.7854
X6.2647Y-3.2566
X6.2647Y-4.4852
X6.2647Y-5.7138
X6.2659Y-2.0708
X6.2688Y-1.9992
X6.2815Y-2.7298
X6.2815Y-3.9584
X6.2815Y-5.187
X6.2856Y-1.4724
X6.2879Y-2.6185
X6.2879Y-3.847
X6.2879Y-5.0756
X6.292Y-1.361
X6.2933Y-3.0979
X6.2933Y-4.3265
X6.2933Y-5.5551
X6.2974Y-1.8405
X6.2992Y-1.2992
X6.3012Y-1.939
X6.3091Y-3.1909
X6.3169Y-4.4252
X6.3169Y-5.6506
X6.3228Y-5.0236
X6.3248Y-3.7953
X6.3268Y-2.2894
X6.3268Y-2.3366
X6.3314Y-2.4939
X6.3314Y-3.7225
X6.3314Y-4.9511
X6.3356Y-1.2364
X6.3386Y-2.5591
X6.376Y-4.7441
X6.376Y-5.9587
X6.378Y-1.6142
X6.378Y-2.2461
X6.378Y-2.874
X6.378Y-3.5039
X6.3819Y-4.1063
X6.3957Y-5.313
X6.4055Y-3.3228
X6.4055Y-4.5531
X6.4055Y-5.7815
X6.4094Y-2.0669
X6.4232Y-5.1565
X6.4232Y-2.6993
X6.4252Y-3.9279
X6.4311Y-1.435
X6.4857Y-2.5214
X6.4857Y-3.75
X6.4857Y-4.9786
X6.4899Y-1.264
X6.4953Y-3.5239
X6.4953Y-4.7525
X6.4953Y-5.9811
X6.4994Y-2.2664
X6.5347Y-2.8947
X6.5347Y-4.1233
X6.5347Y-5.3519
X6.5349Y-2.5627
X6.5349Y-3.7913
X6.5349Y-5.0199
X6.5354Y-3.2928
X6.5354Y-4.5214
X6.5354Y-5.75
X6.5388Y-1.6373
X6.5391Y-1.3053
X6.5396Y-2.0354
X6.5682Y-2.6173
X6.5682Y-3.8459
X6.5682Y-5.0745
X6.5723Y-1.3598
X6.5728Y-1.498
X6.5768Y-1.9626
X6.5787Y-5.748
X6.5886Y-3.9902
X6.5906Y-3.2852
X6.5945Y-2.7618
X6.6004Y-5.2185
X6.6043Y-2.0277
X6.6083Y-4.5138
X6.6102Y-1.7402
X6.6122Y-1.8248
X6.6319Y-1.3917
X6.6319Y-2.6432
X6.6319Y-3.8718
X6.6319Y-5.1004
X6.6673Y-2.7042
X6.6673Y-3.9328
X6.6673Y-5.1614
X6.6715Y-1.4468
X6.7421Y-3.2948
X6.7421Y-4.5234
X6.7421Y-5.752
X6.7463Y-2.0374
X6.7678Y-2.6968
X6.7678Y-3.9254
X6.7678Y-5.154
X6.7706Y-2.8019
X6.7706Y-4.0305
X6.7706Y-5.2591
X6.7719Y-1.4394
X6.7721Y-3.3818
X6.7721Y-4.6104
X6.7721Y-5.839
X6.7747Y-1.5445
X6.7763Y-2.1244
X6.7874Y-3.4286
X6.7874Y-4.6572
X6.7874Y-5.8858
X6.7894Y-3.342
X6.7894Y-4.5706
X6.7894Y-5.7992
X6.7915Y-2.1712
X6.7935Y-2.0846
X6.8031Y-3.5413
X6.8031Y-3.6772
X6.8051Y-3.5846
X6.8051Y-3.6299
X7.4968Y-1.5861
X7.6142Y-1.8563
X7.6161Y-1.811
X7.6398Y-1.9567
X7.9575Y-2.3606
X8.0287Y-3.4524
X8.0866Y-3.4409
X8.0886Y-3.7979
X8.1644Y-3.3484
X8.1644Y-3.438
X8.1837Y-3.8012
X8.1837Y-3.9055
X8.1936Y-1.7672
X8.1949Y-3.248
X8.1959Y-3.438
X8.1969Y-1.8091
X8.1988Y-1.8563
X8.2171Y-3.8012
X8.2171Y-4.0059
X8.2272Y-3.1469
X8.2272Y-3.4382
X8.2486Y-3.8012
X8.2486Y-4.1044
X8.265Y-3.048
X8.265Y-3.4382
X8.2801Y-3.8012
X8.2801Y-4.1969
X8.2937Y-2.9488
X8.2937Y-3.4382
X8.3136Y-3.8012
X8.3136Y-4.2973
X8.3213Y-2.8492
X8.3213Y-3.4382
X8.3366Y-5.1161
X8.3451Y-3.8012
X8.3451Y-4.3977
X8.3567Y-3.564
X8.3701Y-3.6773
X8.3963Y-3.5633
X8.3996Y-3.439
X8.4287Y-3.7949
X8.4369Y-3.5635
X8.4571Y-1.9445
X8.4965Y-4.5886
X8.5008Y-3.7953
X8.5039Y-3.439
X8.5079Y-5.0453
X8.5173Y-1.9457
X8.5445Y-4.5697
X8.5453Y-4.998
X8.5453Y-5.0846
X8.5551Y-3.437
X8.5839Y-2.4809
X8.5965Y-4.998
X8.5988Y-4.5697
X8.6201Y-5.1703
X8.6228Y-3.348
X8.6228Y-3.4376
X8.6419Y-3.8008
X8.6419Y-3.9051
X8.6457Y-5.0
X8.6465Y-4.5697
X8.6524Y-2.4677
X8.6533Y-3.2476
X8.6543Y-3.4376
X8.6565Y-1.9341
X8.6754Y-3.8008
X8.6754Y-4.0055
X8.6856Y-3.1464
X8.6856Y-3.4378
X8.6961Y-2.1843
X8.6969Y-5.0
X8.6969Y-5.2303
X8.698Y-4.5697
X8.7069Y-3.8008
X8.7069Y-4.104
X8.7189Y-1.985
X8.7234Y-3.0476
X8.7234Y-3.4378
X8.7384Y-3.8008
X8.7384Y-4.1965
X8.7411Y-1.9321
X8.7465Y-2.2701
X8.7465Y-4.5697
X8.7522Y-2.9484
X8.7522Y-3.4378
X8.7719Y-3.8008
X8.7719Y-4.2969
X8.7797Y-2.8488
X8.7797Y-3.4378
X8.7835Y-1.9291
X8.7965Y-4.9992
X8.7972Y-4.5697
X8.8033Y-3.8008
X8.8033Y-4.3973
X8.8238Y-1.9282
X8.828Y-3.6773
X8.8283Y-3.5626
X8.8445Y-3.439
X8.8472Y-4.5697
X8.8472Y-5.0634
X8.8657Y-3.5626
X8.8799Y-3.7945
X8.887Y-1.9715
X8.8907Y-1.9302
X8.9075Y-5.0638
X8.9079Y-2.5031
X8.9094Y-3.564
X8.9598Y-3.4732
X8.9772Y-3.7957
X9.0165Y-4.5906
X9.0169Y-2.1579
X9.0223Y-3.437
X9.0648Y-4.5697
X9.0839Y-3.348
X9.0839Y-3.4376
X9.0839Y-2.3535
X9.0886Y-2.1398
X9.0886Y-2.1984
X9.1024Y-3.8012
X9.1024Y-3.9055
X9.1063Y-2.3091
X9.1063Y-2.3091
X9.1144Y-3.2476
X9.1154Y-3.4376
X9.1191Y-4.5697
X9.128Y-2.2106
X9.128Y-2.2776
X9.1358Y-3.8012
X9.1358Y-4.0059
X9.1467Y-3.1464
X9.1467Y-3.4378
X9.1526Y-2.1407
X9.1667Y-4.5697
X9.1673Y-3.8012
X9.1673Y-4.1043
X9.1693Y-1.5512
X9.1844Y-3.0476
X9.1844Y-3.4378
X9.1988Y-3.8012
X9.1988Y-4.1969
X9.2132Y-2.9484
X9.2132Y-3.4378
X9.2146Y-4.5709
X9.2323Y-3.8012
X9.2323Y-4.2972
X9.2407Y-2.8488
X9.2407Y-3.4378
X9.2638Y-2.4665
X9.2638Y-3.8012
X9.2638Y-4.3976
X9.2667Y-4.5697
X9.2835Y-1.4705
X9.2866Y-3.6773
X9.2878Y-3.564
X9.3075Y-2.2487
X9.3091Y-3.4409
X9.3175Y-4.5697
X9.3189Y-2.0669
X9.3248Y-3.564
X9.3406Y-3.7913
X9.3455Y-1.4695
X9.361Y-3.564
X9.3669Y-5.0673
X9.3675Y-4.5697
X9.3723Y-2.5281
X9.4193Y-2.0709
X9.428Y-5.0677
X9.4311Y-4.5705
X9.4429Y-3.4409
X9.4685Y-2.0689
X9.4862Y-3.4429
X9.5004Y-3.7937
X9.687Y-2.4429
X9.7146Y-3.585
X9.7173Y-2.302
X9.7252Y-2.3441
X9.7362Y-3.437
X9.7382Y-2.7323
X9.7425Y-3.6736
X9.75Y-2.4449
X9.7566Y-3.5834
X9.7945Y-3.5846
X9.7969Y-3.7957
T2
X3.3898Y-3.4567
X3.3898Y-3.4961
T3
X7.6921Y-1.3321
X7.7921Y-1.3321
X7.8921Y-1.3321
X7.9456Y-2.2002
X8.0456Y-2.2002
X8.1456Y-2.2002
X8.7002Y-1.3475
X8.8002Y-1.3475
X8.9002Y-1.3475
T4
X3.3685Y-3.1097
X3.3685Y-3.2082
X7.2323Y-1.5725
X7.2323Y-1.671
X7.2323Y-1.7694
X7.3583Y-1.5725
X7.3583Y-1.671
X7.3583Y-1.7694
T5
X2.8732Y-2.4928
X2.8732Y-2.7928
X2.9732Y-2.7928
X3.1732Y-2.7928
X3.4732Y-2.4928
X3.4732Y-2.7928
T6
X3.5033Y-5.598
X3.6033Y-5.598
X7.8181Y-2.8727
X7.8181Y-2.9727
X7.8181Y-3.0727
X7.8181Y-3.1727
X7.8181Y-3.2727
X7.8181Y-3.3727
X7.8181Y-3.4727
X7.8181Y-3.5727
X7.8181Y-3.6727
X7.8181Y-3.7727
X7.8181Y-3.8727
X7.8181Y-3.9727
X7.8181Y-4.0727
X7.8181Y-4.1727
X7.8181Y-4.2727
X7.8181Y-4.3727
X7.9181Y-2.8727
X7.9181Y-2.9727
X7.9181Y-3.0727
X7.9181Y-3.1727
X7.9181Y-3.2727
X7.9181Y-3.3727
X7.9181Y-3.4727
X7.9181Y-3.5727
X7.9181Y-3.6727
X7.9181Y-3.7727
X7.9181Y-3.8727
X7.9181Y-3.9727
X7.9181Y-4.0727
X7.9181Y-4.1727
X7.9181Y-4.2727
X7.9181Y-4.3727
T7
X2.5713Y-1.6752
X2.7563Y-1.6752
X2.9413Y-1.6752
T8
X2.4456Y-1.3597
X2.4456Y-5.8873
X9.7192Y-5.8873
X9.7291Y-1.3597
T2
G00X2.1957Y-3.0894
M15
G01X2.2232Y-3.0894
M16
G05
G00X2.1957Y-3.3492
M15
G01X2.2232Y-3.3492
M16
G05
T6
G00X2.4429Y-2.1142
M15
G01X2.4429Y-2.2008
M16
G05
G00X2.6201Y-2.3465
M15
G01X2.5335Y-2.3465
M16
G05
G00X2.6909Y-2.1063
M15
G01X2.6909Y-2.2087
M16
G05
T0
M30
