%TF.GenerationSoftware,KiCad,Pcbnew,7.0.9*%
%TF.CreationDate,2024-03-04T14:23:29-07:00*%
%TF.ProjectId,picoAWG,7069636f-4157-4472-9e6b-696361645f70,rev?*%
%TF.SameCoordinates,Original*%
%TF.FileFunction,Legend,Bot*%
%TF.FilePolarity,Positive*%
%FSLAX46Y46*%
G04 Gerber Fmt 4.6, Leading zero omitted, Abs format (unit mm)*
G04 Created by KiCad (PCBNEW 7.0.9) date 2024-03-04 14:23:29*
%MOMM*%
%LPD*%
G01*
G04 APERTURE LIST*
%ADD10C,0.150000*%
%ADD11C,0.120000*%
%ADD12R,1.600000X1.600000*%
%ADD13C,1.600000*%
%ADD14C,5.600000*%
%ADD15C,1.270000*%
%ADD16C,2.350000*%
%ADD17R,1.700000X1.700000*%
%ADD18O,1.700000X1.700000*%
%ADD19R,2.000000X4.600000*%
%ADD20O,2.000000X4.200000*%
%ADD21O,4.200000X2.000000*%
%ADD22R,1.850000X1.850000*%
%ADD23C,1.850000*%
%ADD24R,0.850000X0.850000*%
%ADD25O,0.850000X0.850000*%
%ADD26O,1.600000X0.900000*%
G04 APERTURE END LIST*
D10*
X200182023Y-70091089D02*
X200182023Y-70805374D01*
X200182023Y-70805374D02*
X200229642Y-70948231D01*
X200229642Y-70948231D02*
X200324880Y-71043470D01*
X200324880Y-71043470D02*
X200467737Y-71091089D01*
X200467737Y-71091089D02*
X200562975Y-71091089D01*
X199801070Y-70091089D02*
X199182023Y-70091089D01*
X199182023Y-70091089D02*
X199515356Y-70472041D01*
X199515356Y-70472041D02*
X199372499Y-70472041D01*
X199372499Y-70472041D02*
X199277261Y-70519660D01*
X199277261Y-70519660D02*
X199229642Y-70567279D01*
X199229642Y-70567279D02*
X199182023Y-70662517D01*
X199182023Y-70662517D02*
X199182023Y-70900612D01*
X199182023Y-70900612D02*
X199229642Y-70995850D01*
X199229642Y-70995850D02*
X199277261Y-71043470D01*
X199277261Y-71043470D02*
X199372499Y-71091089D01*
X199372499Y-71091089D02*
X199658213Y-71091089D01*
X199658213Y-71091089D02*
X199753451Y-71043470D01*
X199753451Y-71043470D02*
X199801070Y-70995850D01*
D11*
%TO.C,J3*%
X202448690Y-112396270D02*
X197248690Y-112396270D01*
X202448690Y-74236270D02*
X202448690Y-112396270D01*
X202448690Y-74236270D02*
X199848690Y-74236270D01*
X202448690Y-72966270D02*
X202448690Y-71636270D01*
X202448690Y-71636270D02*
X201118690Y-71636270D01*
X199848690Y-74236270D02*
X199848690Y-71636270D01*
X199848690Y-71636270D02*
X197248690Y-71636270D01*
X197248690Y-71636270D02*
X197248690Y-112396270D01*
%TD*%
%LPC*%
D12*
%TO.C,C15*%
X85560000Y-78987621D03*
D13*
X85560000Y-81487621D03*
%TD*%
D14*
%TO.C,REF\u002A\u002A*%
X246868690Y-149536270D03*
%TD*%
D15*
%TO.C,RV2*%
X195378690Y-33836270D03*
X197918690Y-33836270D03*
X200458690Y-33836270D03*
%TD*%
D16*
%TO.C,SW3*%
X65310000Y-42550000D03*
X70010000Y-42550000D03*
X74710000Y-42550000D03*
%TD*%
D14*
%TO.C,REF\u002A\u002A*%
X62118690Y-149536270D03*
%TD*%
D15*
%TO.C,RV3*%
X206898690Y-55886270D03*
X204358690Y-55886270D03*
X201818690Y-55886270D03*
%TD*%
D17*
%TO.C,J5*%
X88985000Y-142190000D03*
D18*
X91525000Y-142190000D03*
%TD*%
D15*
%TO.C,RV1*%
X226065000Y-34226401D03*
X223525000Y-34226401D03*
X220985000Y-34226401D03*
%TD*%
D12*
%TO.C,SW4*%
X186900000Y-39942500D03*
D13*
X186900000Y-42442500D03*
X186900000Y-44942500D03*
X183700000Y-39942500D03*
X183700000Y-42442500D03*
X183700000Y-44942500D03*
%TD*%
D19*
%TO.C,J4*%
X68350000Y-54800000D03*
D20*
X62050000Y-54800000D03*
D21*
X65450000Y-59600000D03*
%TD*%
D14*
%TO.C,REF\u002A\u002A*%
X247118690Y-34536270D03*
%TD*%
D22*
%TO.C,PS1*%
X88218690Y-63316270D03*
D23*
X72978690Y-63316270D03*
X88218690Y-70936270D03*
X80598690Y-70936270D03*
X75518690Y-70936270D03*
X72978690Y-70936270D03*
%TD*%
D14*
%TO.C,REF\u002A\u002A*%
X62118690Y-34536270D03*
%TD*%
D24*
%TO.C,J1*%
X86100000Y-87800000D03*
D25*
X86100000Y-88800000D03*
%TD*%
D26*
%TO.C,J2*%
X56120000Y-78470000D03*
X56120000Y-85070000D03*
%TD*%
D17*
%TO.C,J3*%
X201118690Y-72966270D03*
D18*
X198578690Y-72966270D03*
X201118690Y-75506270D03*
X198578690Y-75506270D03*
X201118690Y-78046270D03*
X198578690Y-78046270D03*
X201118690Y-80586270D03*
X198578690Y-80586270D03*
X201118690Y-83126270D03*
X198578690Y-83126270D03*
X201118690Y-85666270D03*
X198578690Y-85666270D03*
X201118690Y-88206270D03*
X198578690Y-88206270D03*
X201118690Y-90746270D03*
X198578690Y-90746270D03*
X201118690Y-93286270D03*
X198578690Y-93286270D03*
X201118690Y-95826270D03*
X198578690Y-95826270D03*
X201118690Y-98366270D03*
X198578690Y-98366270D03*
X201118690Y-100906270D03*
X198578690Y-100906270D03*
X201118690Y-103446270D03*
X198578690Y-103446270D03*
X201118690Y-105986270D03*
X198578690Y-105986270D03*
X201118690Y-108526270D03*
X198578690Y-108526270D03*
X201118690Y-111066270D03*
X198578690Y-111066270D03*
%TD*%
%LPD*%
M02*
